<?xml version="1.0" standalone="no"?>
<!DOCTYPE svg PUBLIC "-//W3C//DTD SVG 1.1//EN" "http://www.w3.org/Graphics/SVG/1.1/DTD/svg11.dtd" >
<svg xmlns="http://www.w3.org/2000/svg">
<metadata>
Created by FontForge 20120731 at Mon May 23 10:29:47 2016
 By admin
</metadata>
<defs>
<font id="iconfont" horiz-adv-x="1024" >
  <font-face 
    font-family="iconfont"
    font-weight="500"
    font-stretch="normal"
    units-per-em="1024"
    panose-1="2 0 6 3 0 0 0 0 0 0"
    ascent="896"
    descent="-128"
    x-height="792"
    bbox="31 -99 992 874.919"
    underline-thickness="50"
    underline-position="-100"
    unicode-range="U+0078-E67D"
  />
<missing-glyph horiz-adv-x="374" 
d="M34 0v682h272v-682h-272zM68 34h204v614h-204v-614z" />
    <glyph glyph-name=".notdef" horiz-adv-x="374" 
d="M34 0v682h272v-682h-272zM68 34h204v614h-204v-614z" />
    <glyph glyph-name=".null" horiz-adv-x="0" 
 />
    <glyph glyph-name="nonmarkingreturn" horiz-adv-x="341" 
 />
    <glyph glyph-name="x" unicode="x" horiz-adv-x="1001" 
d="M281 543q-27 -1 -53 -1h-83q-18 0 -36.5 -6t-32.5 -18.5t-23 -32t-9 -45.5v-76h912v41q0 16 -0.5 30t-0.5 18q0 13 -5 29t-17 29.5t-31.5 22.5t-49.5 9h-133v-97h-438v97zM955 310v-52q0 -23 0.5 -52t0.5 -58t-10.5 -47.5t-26 -30t-33 -16t-31.5 -4.5q-14 -1 -29.5 -0.5
t-29.5 0.5h-32l-45 128h-439l-44 -128h-29h-34q-20 0 -45 1q-25 0 -41 9.5t-25.5 23t-13.5 29.5t-4 30v167h911zM163 247q-12 0 -21 -8.5t-9 -21.5t9 -21.5t21 -8.5q13 0 22 8.5t9 21.5t-9 21.5t-22 8.5zM316 123q-8 -26 -14 -48q-5 -19 -10.5 -37t-7.5 -25t-3 -15t1 -14.5
t9.5 -10.5t21.5 -4h37h67h81h80h64h36q23 0 34 12t2 38q-5 13 -9.5 30.5t-9.5 34.5q-5 19 -11 39h-368zM336 498v228q0 11 2.5 23t10 21.5t20.5 15.5t34 6h188q31 0 51.5 -14.5t20.5 -52.5v-227h-327z" />
    <glyph glyph-name="uniE600" unicode="&#xe600;" 
d="M731 -52h-436q-72 0 -97.5 28.5t-25.5 104.5v457q0 10 7.5 17.5t18 7.5t18 -7.5t7.5 -17.5v-457q0 -56 10.5 -68.5t61.5 -12.5h436q52 0 66.5 13.5t14.5 67.5v457q0 10 7.5 17.5t18.5 7.5t18.5 -7.5t7.5 -17.5v-457q0 -75 -30 -104t-103 -29zM620 -39q-5 0 -9 4t-4 9v243
q0 18 -5.5 22t-27.5 4h-123q-8 0 -11.5 -0.5t-7 -0.5t-4 -3t-1 -4t0 -7.5t0.5 -10.5v-243q0 -5 -3.5 -9t-9 -4t-9.5 4t-4 9v243q0 32 10 42t39 10h123q31 0 45 -10.5t14 -41.5v-243q0 -5 -4 -9t-9 -4zM90 461q-13 0 -20 10q-7 9 -5.5 19.5t10.5 16.5l422 318q9 7 19.5 5.5
t17 -10t5 -19t-10.5 -16.5l-423 -319q-6 -5 -15 -5zM936 461q-9 0 -16 5l-423 319q-8 6 -9.5 16.5t5 19t17 10t18.5 -5.5l423 -318q8 -6 9.5 -16.5t-4.5 -19.5q-8 -10 -20 -10zM287 345q-5 0 -9 4t-4 9v146q0 8 3 10l167 129q10 8 17 -2q9 -12 0 -18l-161 -125v-140
q0 -5 -4 -9t-9 -4zM287 281q-5 0 -9 4t-4 9v13q0 5 4 9t9 4t9 -4t4 -9v-13q0 -5 -4 -9t-9 -4z" />
    <glyph glyph-name="uniE601" unicode="&#xe601;" 
d="M364 296zM513 -65h-298q-34 0 -59 24.5t-25 57.5q0 75 65 167.5t144 130.5q10 4 20 0.5t14.5 -13t1 -20t-13.5 -14.5q-68 -33 -123.5 -113.5t-55.5 -137.5q0 -11 10 -20.5t22 -9.5h298q11 0 18.5 -7.5t7.5 -18.5t-7.5 -18.5t-18.5 -7.5zM662 296zM811 -65h-298
q-11 0 -18.5 7.5t-7.5 18.5t7.5 18.5t18.5 7.5h298q12 0 22 9.5t10 20.5q0 57 -55.5 137.5t-124.5 113.5q-9 4 -13 14.5t1 20t15 13t20 -0.5q79 -38 144 -130.5t65 -167.5q0 -33 -25.5 -57.5t-58.5 -24.5zM664 296zM516.5 318q-105.5 0 -180 75t-74.5 180.5t74.5 180
t180 74.5t180.5 -74.5t75 -180t-75 -180.5t-180.5 -75zM517 777q-84 0 -143.5 -60t-59.5 -144t59.5 -143.5t143.5 -59.5t143.5 59.5t59.5 143.5t-59.5 144t-143.5 60zM664 296zM370.5 560q-5.5 0 -9 4t-3.5 9q0 66 46.5 113t112.5 47q5 0 9 -4t4 -9.5t-4 -9t-9 -3.5
q-55 0 -94.5 -39.5t-39.5 -94.5q0 -5 -3.5 -9t-9 -4zM525 720zM397 520.5q0 -5.5 -3.5 -9t-9 -3.5t-9.5 3.5t-4 9t4 9.5t9.5 4t9 -4t3.5 -9.5z" />
    <glyph glyph-name="uniE602" unicode="&#xe602;" 
d="M457 362l2 -2q1 0 1 -1q17 -21 44 -21q24 0 40.5 16.5t16.5 40.5q0 25 -19 42q-3 4 -5 5l-230 175q-11 9 -23 0q-6 -5 -7 -13t4 -14zM511 833q-12 0 -20 -8t-8 -19v-178q0 -11 8 -19t19.5 -8t19.5 8t8 19v149q99 -7 182.5 -61.5t133 -142t49.5 -187.5q0 -106 -52.5 -196
t-143 -142.5t-196.5 -52.5t-196.5 52.5t-143 142.5t-52.5 197q0 83 33.5 159t94.5 131q9 8 9.5 19t-7 19.5t-19 9t-20.5 -6.5q-69 -64 -107.5 -150.5t-38.5 -180.5q0 -91 35.5 -174t95.5 -142.5t142.5 -95t173.5 -35.5t173.5 35.5t142.5 95t95.5 142.5t35.5 173t-36.5 172.5
t-96.5 142.5t-142.5 96t-171.5 36zM607 54q2 0 4 1q109 32 177.5 125t68.5 207q0 5 -4 9t-9.5 4t-9.5 -4t-4 -9q0 -105 -63.5 -190.5t-163.5 -115.5q-6 -2 -8.5 -7t-0.5 -10q3 -10 13 -10zM511 66q-6 0 -10 -4t-3.5 -10t4.5 -9.5t9 -3.5h1q23 1 45 5q6 1 9 5.5t2 10t-5.5 9
t-10.5 2.5q-20 -4 -41 -5z" />
    <glyph glyph-name="uniE603" unicode="&#xe603;" 
d="M879 167h-490q-63 0 -76 70l-63 475l-1 9q-2 21 -3.5 33t-10 32.5t-22 31.5t-40.5 20t-64 9q-12 0 -20 -8t-8 -19.5t8 -20t20 -8.5q29 0 45.5 -4t24.5 -16t10.5 -22t3.5 -32l1 -11l63 -477v-1q11 -55 46 -86t86 -31h490q12 0 20 8t8 19.5t-8 20t-20 8.5zM948 709
q-28 31 -76 31h-538q-12 0 -20 -8.5t-8 -20t8 -19.5t20 -8h538q23 0 34 -12t8 -37l-42 -249q-3 -19 -17.5 -37t-41.5 -23l-411 -27q-12 0 -19.5 -9t-6.5 -20t9 -19t19 -8h2l412 28h2q45 7 73 37.5t34 68.5l42 250l1 1q5 50 -22 81zM820.5 434.5q-5.5 0.5 -10.5 -3t-5 -8.5
q-1 -5 -8 -22q-5 -12 8 -18q2 -1 5 -1q9 0 13 9q8 19 9 28q1 5 -2.5 10t-9 5.5zM844 487l15 90q3 29 -12 47q-16 18 -46 18h-90q-6 0 -10 -4t-4 -10t4 -10t10 -4h90q17 0 25 -9q7 -8 5 -24l-15 -90q-1 -5 2.5 -10t9.5 -6h2q12 0 14 12zM367 83q-27 0 -45.5 -19t-18.5 -46
t18.5 -45.5t45.5 -18.5t46 18.5t19 45.5t-19 46t-46 19zM814.5 83q-26.5 0 -45.5 -19t-19 -46t19 -45.5t45.5 -18.5t45.5 18.5t19 45.5t-19 46t-45.5 19z" />
    <glyph glyph-name="uniE604" unicode="&#xe604;" 
d="M320 -69q-11 0 -19 7q-14 13 -7 32l32 76q9 19 10 31q-12 19 4 34q8 8 19.5 8t19.5 -8q27 -27 -2 -88l-1 -2l126 69q6 4 13 4q106 0 196.5 46t142.5 125.5t52 172.5q0 87 -53.5 163.5t-144 122t-193.5 45.5q-101 0 -190.5 -45t-143.5 -121.5t-57 -164.5q-2 -77 36 -147
t110 -121q10 -7 11.5 -18t-5 -20.5t-18 -11.5t-20.5 5q-83 59 -127.5 141t-41.5 173q3 103 64.5 192t163.5 141.5t218 52.5q119 0 222 -52.5t164 -142t61 -192.5q0 -107 -59 -198.5t-160 -145.5t-220 -56l-190 -103q-6 -4 -13 -4zM586 489h-250q-6 0 -10 4t-4 10t4 10t10 4
h250q6 0 10 -4t4 -10t-4 -10t-10 -4zM697 489h-42q-5 0 -9 4t-4 10t4 10t9 4h42q6 0 10 -4t4 -10t-4 -10t-10 -4zM503 350h-153q-6 0 -10 4.5t-4 10t4 9.5t10 4h153q5 0 9.5 -4t4.5 -9.5t-4.5 -10t-9.5 -4.5zM586 350h-28q-6 0 -10 4.5t-4 10t4 9.5t10 4h28q6 0 10 -4
t4 -9.5t-4 -10t-10 -4.5z" />
    <glyph glyph-name="uniE605" unicode="&#xe605;" 
d="M578 474h-240q-6 0 -10 4t-4 9.5t4 9.5t10 4h240q6 0 10 -4t4 -9.5t-4 -9.5t-10 -4zM685 474h-40q-6 0 -9.5 4t-3.5 9.5t3.5 9.5t9.5 4h40q6 0 9.5 -4t3.5 -9.5t-3.5 -9.5t-9.5 -4zM498 341h-147q-5 0 -9 3.5t-4 9t4 9.5t9 4h147q6 0 9.5 -4t3.5 -9.5t-3.5 -9t-9.5 -3.5z
M578 341h-26q-6 0 -10 3.5t-4 9t4 9.5t10 4h26q6 0 10 -4t4 -9.5t-4 -9t-10 -3.5zM274 167q-69 49 -105.5 116.5t-34.5 140.5q2 85 54 159t138.5 117t183.5 43q104 0 196 -49q-1 6 -1 12q0 23 8 45q-95 46 -203 46q-111 0 -209.5 -50.5t-158 -136t-62.5 -184.5
q-2 -87 40.5 -166.5t122.5 -136.5q9 -6 20 -4.5t17.5 10.5t4.5 20t-11 18zM836 579q51 -73 51 -154q0 -90 -50.5 -166.5t-137.5 -121t-189 -44.5q-7 0 -13 -3l-121 -66l1 1q28 59 2 85q-8 8 -19 8t-19 -8q-15 -15 -4 -33q0 -11 -9 -30l-31 -73q-7 -18 7 -30q8 -7 18 -7
q7 0 13 3l182 100q115 2 212.5 53.5t154 140t56.5 191.5q0 88 -48 168q-26 -13 -56 -14zM956 718.5q0 -46.5 -33 -79t-79.5 -32.5t-79 32.5t-32.5 79t32.5 79t79 32.5t79.5 -32.5t33 -79z" />
    <glyph glyph-name="uniE606" unicode="&#xe606;" 
d="M512 756zM512 756q-127 0 -225.5 -78t-127.5 -199q-4 0 -10.5 -1.5t-23.5 -9.5t-29.5 -19.5t-22 -33.5t-8.5 -49.5t13 -48.5t26.5 -31.5t31.5 -16.5t25.5 -7t11.5 -1q3 -1 6.5 -1t13 2.5t11.5 2.5q-26 61 -26 127q0 91 45 168t122 121.5t167.5 44.5t167.5 -44.5
t121.5 -121.5t44.5 -168q0 -109 -63.5 -196t-163.5 -120q-4 -2 -8 -1.5t-7 1.5l-3 1q-22 4 -50 -4q-10 -3 -15 -12t-4 -20q2 -25 23 -29q50 -8 61 15q1 2 2.5 6t3 6t3.5 4.5t5 3.5q76 26 134.5 82t87.5 132q4 0 11 1.5t25 8.5t32 17.5t25.5 31.5t12.5 47.5t-8 48t-23 32.5
t-27.5 19t-23.5 10l-10 2q-30 121 -128.5 199t-225.5 78zM512 111q-119 0 -203.5 84.5t-84.5 203t84.5 203t203.5 84.5t203 -84.5t84 -203t-84 -203t-203 -84.5zM511.5 630q-95.5 0 -163.5 -68t-68 -163.5t68 -163.5t163.5 -68t163.5 68t68 163.5t-68 163.5t-163.5 68z
M515 204q-46 0 -86 23q-38 22 -61 60q-8 12 4 19t20 -5q19 -31 51 -50q33 -19 72 -19t72 19q32 19 51 50q8 12 20 5t4 -19q-23 -38 -61 -60q-40 -23 -86 -23zM668 331q-5 0 -9 4q-10 9 -1 20q6 6 6 21q0 6 4 10t10 4t10 -4t4 -10q0 -26 -13 -41q-5 -4 -11 -4z" />
    <glyph glyph-name="uniE607" unicode="&#xe607;" 
d="M820.5 287q-10.5 0 -18.5 -8t-8 -18v-154q0 -25 -21.5 -47t-45.5 -22h-456q-23 0 -38.5 21t-15.5 48v154q0 10 -7.5 18t-18.5 8t-19 -8t-8 -18v-154q0 -47 30 -84.5t77 -37.5h456q46 0 83 37.5t37 84.5v154q0 10 -8 18t-18.5 8zM597 90q6 0 10 4t4 9.5t-4 9t-10 3.5h-39
q-5 0 -9 -3.5t-4 -9t4 -9.5t9 -4h39zM742 142v119q0 5 -4 9t-9.5 4t-9.5 -4t-4 -9v-119q0 -11 -8 -18t-13 -8q-6 0 -10 -3.5t-4 -9t4 -9.5t10 -4q14 0 31 14.5t17 37.5zM824 780q-7 5 -16 5h-594q-9 0 -16 -5q-46 -35 -91 -129t-45 -163q0 -66 47 -122t115 -56q47 0 87 19.5
t64 52.5q25 -33 64.5 -51.5t79.5 -18.5t77.5 19t58.5 52q26 -29 63.5 -47t70.5 -24q16 -2 30 -2q56 0 92 36q45 46 44 125q0 58 -44.5 167t-86.5 142zM874 383q-27 -27 -77 -19q-35 6 -72 28.5t-49 54.5v155q0 11 -7.5 18.5t-18.5 7.5t-18.5 -7.5t-7.5 -18.5v-152
q-1 -1 -1 -3q-3 -37 -34.5 -59.5t-69.5 -22.5q-40 0 -75.5 24t-41.5 61q-1 2 -1 5v147q0 11 -8 18.5t-18.5 7.5t-18.5 -7.5t-8 -18.5v-159q-10 -35 -44.5 -57.5t-79.5 -22.5t-77 39.5t-32 85.5q0 55 36.5 133.5t71.5 111.5h575q32 -32 68.5 -124.5t36.5 -137.5
q0 -58 -29 -88zM440 628q-5 0 -9 -4t-4 -9v-40q0 -5 4 -9t9 -4t9 4t4 9v40q0 5 -4 9t-9 4z" />
    <glyph glyph-name="uniE608" unicode="&#xe608;" 
d="M94 526q-12 0 -20.5 8.5t-8.5 20.5v164q0 48 34.5 78.5t87.5 30.5h166q12 0 20.5 -8.5t8.5 -20t-8.5 -20t-20.5 -8.5h-166q-26 0 -45.5 -13t-19.5 -39v-164q0 -12 -8 -20.5t-20 -8.5zM353 -65h-166q-50 0 -86 36t-36 86v166q0 12 8.5 20.5t20.5 8.5t20 -8.5t8 -20.5v-166
q0 -26 19.5 -45t45.5 -19h166q12 0 20.5 -8.5t8.5 -20.5t-8.5 -20.5t-20.5 -8.5zM849 -65h-179q-12 0 -20.5 8.5t-8.5 20.5t8.5 20.5t20.5 8.5h179q26 0 39 19t13 45v166q0 12 8 20.5t20 8.5t20.5 -8.5t8.5 -20.5v-166q0 -53 -30.5 -87.5t-78.5 -34.5zM929 526
q-12 0 -20 8.5t-8 20.5v164q0 52 -52 52h-179q-12 0 -20.5 8.5t-8.5 20t8.5 20t20.5 8.5h179q51 0 80 -29t29 -80v-164q0 -12 -8.5 -20.5t-20.5 -8.5zM785 367h-706q-6 0 -10 4.5t-4 10.5t4 10t10 4h706q6 0 10.5 -4t4.5 -10t-4.5 -10.5t-10.5 -4.5zM944 367h-101
q-6 0 -10 4.5t-4 10.5t4 10t10 4h101q6 0 10 -4t4 -10t-4 -10.5t-10 -4.5z" />
    <glyph glyph-name="uniE609" unicode="&#xe609;" 
d="M931.5 70q-10.5 0 -18.5 8t-8 19v572q0 29 -20.5 49.5t-49.5 20.5h-409q-29 0 -49.5 -20.5t-20.5 -49.5v-70q0 -20 -19 -25q-51 -15 -116.5 -43.5t-93.5 -59.5q-7 -9 -9 -26t0 -29v-4v-308q0 -11 -8 -18.5t-18.5 -7.5t-18.5 7.5t-8 18.5v307q-7 61 23 94q54 62 215 114
v50q0 51 36 87t87 36h409q51 0 87 -36t36 -87v-572q0 -11 -8 -19t-18.5 -8zM314 325h-105q-5 0 -9 4t-4 9t4 9t9 4h105q10 0 16 10t6 22v115q0 5 4 9t9.5 4t9 -4t3.5 -9v-115q0 -23 -13 -40.5t-35 -17.5zM169 325h-20q-5 0 -9 4t-4 9t4 9t9 4h20q6 0 9.5 -4t3.5 -9t-3.5 -9
t-9.5 -4zM309 -28q-48 0 -82 34t-34 82t34 82t82 34t82.5 -34t34.5 -82t-34.5 -82t-82.5 -34zM309.5 152q-26.5 0 -45 -19t-18.5 -45t18.5 -45t45 -19t45 19t18.5 45t-18.5 45t-45 19zM709.5 -28q-48.5 0 -82.5 34t-34 82t34 82t82.5 34t82.5 -34t34 -82t-34 -82t-82.5 -34z
M709.5 152q-26.5 0 -45 -19t-18.5 -45t18.5 -45t45 -19t45 19t18.5 45t-18.5 45t-45 19zM619 62h-210q-11 0 -18.5 7.5t-7.5 18.5t7.5 18.5t18.5 7.5h210q11 0 19 -7.5t8 -18.5t-8 -18.5t-19 -7.5z" />
    <glyph glyph-name="uniE60A" unicode="&#xe60a;" 
d="M235 87q-21 0 -35.5 15.5t-14.5 37.5v227q0 5 -4 9t-9.5 4t-9.5 -4t-4 -9v-227q0 -33 22.5 -56.5t54.5 -23.5q6 0 9.5 4t3.5 9.5t-3.5 9.5t-9.5 4zM300 87h-13q-6 0 -10 -4t-4 -9.5t4 -9.5t10 -4h13q6 0 9.5 4t3.5 9.5t-3.5 9.5t-9.5 4zM866 407h-54v122q0 30 -20.5 54.5
t-51.5 32.5q2 8 -1 15l-58 154q-3 10 -13.5 14.5t-20.5 1.5l-462 -173q-7 -2 -11 -8h-21q-38 0 -63 -26.5t-25 -64.5v-469q0 -39 25 -66t63 -27h561q39 0 68.5 27.5t29.5 65.5v107h54q38 0 65.5 27t27.5 65v55q0 38 -27.5 65.5t-65.5 27.5zM641 741l45 -121h-370zM759 60
q0 -16 -14 -28t-31 -12h-561q-16 0 -25.5 11.5t-9.5 28.5v469q0 16 9.5 27t25.5 11h561q17 0 31 -11.5t14 -26.5v-122h-81q-39 0 -66 -27.5t-27 -65.5v-55q0 -38 27 -65t66 -27h81v-107zM905 259q0 -16 -11.5 -27.5t-27.5 -11.5h-188q-17 0 -28.5 11.5t-11.5 27.5v55
q0 16 11.5 27.5t28.5 11.5h188q16 0 27.5 -11.5t11.5 -27.5v-55zM705.5 313q-10.5 0 -18 -7.5t-7.5 -18t7.5 -18t18 -7.5t18 7.5t7.5 18t-7.5 18t-18 7.5z" />
    <glyph glyph-name="uniE60B" unicode="&#xe60b;" 
d="M216 525q3 -2 8 -2q9 0 13 8q35 57 93.5 90.5t125.5 33.5q6 0 11 4.5t5 11.5t-5 11.5t-11 4.5q-75 0 -141.5 -37.5t-104.5 -102.5q-3 -6 -1.5 -12.5t7.5 -9.5zM196.5 478.5q-6.5 1.5 -12 -2t-6.5 -9.5q-8 -32 -8 -56q0 -7 4.5 -11.5t11.5 -4.5t11.5 4.5t4.5 11.5
q0 20 7 48q1 7 -2.5 12.5t-10 7zM947 20l-163 163l-1 1q65 99 65 217q0 107 -52.5 197.5t-143 143t-197 52.5t-197 -52.5t-143 -143t-52.5 -197t52.5 -197t143 -143t197.5 -52.5q116 0 213 63l-46 47q-78 -46 -167 -46t-165 44t-120 119.5t-44 164.5t44 165t120 120t165 44
t164.5 -44t119.5 -120t44 -165q0 -127 -86 -221l36 -37q2 -3 5 -5l163 -163q9 -10 22.5 -10t23 9.5t9.5 22.5t-10 23z" />
    <glyph glyph-name="uniE60C" unicode="&#xe60c;" 
d="M512 -63q-91 0 -174 35.5t-142.5 95.5t-95 142.5t-35.5 173.5q0 90 33.5 171.5t97 144.5t145 97t171.5 34q137 0 250 -77q92 -63 144 -161t52 -209q0 -16 -1 -30q-7 -115 -69 -211t-161.5 -151t-214.5 -55zM512 775q-79 0 -150 -29.5t-126.5 -85t-85.5 -127t-30 -149.5
q0 -106 52.5 -196t142.5 -142.5t197 -52.5q101 0 188 48t141 132t61 185q1 12 1 26q0 97 -45.5 183t-126.5 141q-99 67 -219 67zM177 344q-12 0 -13 13q-2 13 -2 27q0 6 4.5 10t10 4t9.5 -4t4 -10q0 -12 1 -25q1 -6 -3 -10t-9 -5h-2zM302 120q-4 0 -8 3q-84 63 -116 162
q-4 13 9 17.5t17 -8.5q29 -91 106 -148q12 -9 3 -20q-4 -6 -11 -6zM505.5 197q-11.5 0 -20 8.5t-8.5 19.5v136q0 12 8.5 20t19.5 8q49 0 79.5 31t30.5 79q0 46 -30 78t-74 32t-73.5 -31.5t-29.5 -77.5v-24q0 -12 -8.5 -20t-20 -8t-19.5 8t-8 20v24q0 69 46 116.5t113 47.5
t113.5 -47.5t46.5 -117.5q0 -63 -38.5 -108.5t-99.5 -54.5v-111q0 -11 -8 -19.5t-19.5 -8.5zM532 146q0 -11 -8 -19t-19 -8t-19 8t-8 19t8 19t19 8t19 -8t8 -19z" />
    <glyph glyph-name="uniE60D" unicode="&#xe60d;" 
d="M97 -73q-12 0 -20 8l-6 6q-11 11 -7 26q8 35 19 74.5t34.5 100t42.5 79.5l562 562q37 37 90 37q57 0 98 -41l6 -6q39 -39 42 -95q4 -58 -35 -97l-561 -561q-20 -20 -81.5 -42t-102 -32.5t-75.5 -18.5h-6zM812 764q-30 0 -51 -21l-561 -561q-28 -28 -72 -192
q166 41 194 69l562 562q20 21 18 54q-2 34 -26 58l-6 7q-24 24 -58 24zM860 567q-6 0 -10 4l-150 150q-10 10 -0.5 20t19.5 0l151 -150q10 -10 0 -20q-4 -4 -10 -4zM350.5 57q-5.5 0 -9.5 4l-151 151q-10 10 0 20t20 0l151 -151q9 -10 0 -20q-5 -4 -10.5 -4zM240.5 -14
q-5.5 0 -9.5 4l-97 96q-10 10 0 20t20 0l96 -97q10 -9 0 -19q-4 -4 -9.5 -4zM258 150q-6 0 -10 4q-10 10 0 20l417 417q10 10 20 0t0 -20l-417 -417q-4 -4 -10 -4zM715 607q-6 0 -10 4q-10 10 0 20l52 52q10 10 20 0t0 -20l-52 -52q-4 -4 -10 -4zM304.5 104q-5.5 0 -10.5 4
q-9 10 0 20l510 509q10 10 19.5 0t0.5 -20l-510 -509q-4 -4 -9.5 -4z" />
    <glyph glyph-name="uniE60E" unicode="&#xe60e;" 
d="M507.5 258q-52.5 0 -89.5 37t-37 89t37 89t89.5 37t89.5 -37t37 -89t-37 -89t-89.5 -37zM507.5 456q-29.5 0 -50.5 -21t-21 -50.5t21 -50.5t50.5 -21t50.5 21t21 50.5t-21 50.5t-50.5 21zM511 -63h-2q-38 0 -69 25.5t-43 65.5q-32 10 -62 26q-32 -18 -66 -18
q-45 0 -75 30l-2 2q-26 26 -30 66t16 77q-12 23 -24 63q-40 12 -64 41.5t-24 67.5v2q0 37 24 67.5t64 42.5q11 38 25 65q-20 36 -16.5 74.5t29.5 64.5l1 2q31 32 79 32q34 0 65 -17q28 14 58 24q10 40 42 65.5t72 25.5h2q40 0 70 -25.5t40 -65.5q30 -10 59 -25q29 18 63 18
q48 0 81 -34l2 -1q28 -28 31.5 -67.5t-17.5 -74.5q18 -36 26 -59q40 -9 66.5 -40.5t26.5 -71.5v-2q0 -40 -26.5 -71.5t-66.5 -40.5q-8 -24 -25 -56q21 -35 17 -76t-33 -69l-2 -3q-33 -33 -77 -33q-32 0 -64 19q-28 -15 -63 -26q-11 -40 -41 -65t-67 -25zM334 113q7 0 13 -4
q38 -22 80 -33q17 -4 20 -22q4 -26 22 -44t40 -18h2q23 0 38.5 18.5t18.5 43.5q3 18 21 22q42 12 81 34q16 10 31 -2q21 -17 45 -17q22 0 38 16l2 1q17 17 17 42.5t-16 45.5q-12 14 -3 31q22 39 32 75q5 19 26 21q26 2 44 19t18 41v2q0 24 -18 41t-44 20q-20 1 -25 20
q-10 38 -33 78q-10 16 2 31q17 21 17.5 44t-15.5 40l-2 1q-18 18 -43 18t-45 -16q-14 -12 -31 -3q-37 22 -78 33q-18 5 -20 24q-2 26 -18.5 43t-39.5 17h-2q-24 0 -42 -17.5t-21 -43.5q-2 -18 -20 -23q-40 -11 -76 -32q-16 -9 -30 2q-22 16 -48 16q-25 0 -40 -16l-2 -1
q-15 -18 -13.5 -41t16.5 -43q10 -15 1 -30q-21 -36 -33 -82q-5 -17 -21 -20q-26 -5 -42.5 -22t-16.5 -38v-2q0 -21 16.5 -38t42.5 -21q17 -3 22 -20q11 -45 32 -80q9 -15 -2 -30q-15 -22 -15 -47t15 -40l2 -3q13 -13 35 -13q25 0 48 17q8 5 17 5zM742 460q-9 0 -13 9
q-26 68 -87 110t-134 42q-6 0 -10 4t-4 9.5t4 9.5t10 4q82 0 150 -46.5t97 -122.5q5 -13 -8 -18q-2 -1 -5 -1zM278 262q-8 0 -12 6q-3 5 -6 14q-3 8 -4 12q-5 13 7.5 18t17.5 -8q2 -6 4.5 -12.5t4.5 -9.5q7 -11 -5 -18q-3 -2 -7 -2zM502 125q-58 0 -111 24.5t-91 69.5
q-9 10 1.5 19t19.5 -2q34 -40 81.5 -62t99.5 -22q6 0 10 -4t4 -9.5t-4 -9.5t-10 -4z" />
    <glyph glyph-name="uniE60F" unicode="&#xe60f;" 
d="M848 379q0 -6 4 -9.5t9.5 -3.5t9 3.5t3.5 9.5q0 110 -67 198t-173 117q-13 4 -16.5 -9t9.5 -16q98 -27 159.5 -108t61.5 -182zM547 680q9 0 17 -1h1q5 0 9 3.5t4 9t-3.5 9.5t-8.5 4q-10 1 -19 1q-5 0 -9 -4t-4 -9.5t4 -9t9 -3.5zM536 809q-115 0 -212.5 -56.5
t-154 -154.5t-56.5 -212q0 -26 3 -51l-31 -11q-15 -5 -18 -21q-3 -18 12 -30l89 -73q8 -7 18 -7q20 0 25 24l23 111q3 16 -7 28q-13 15 -31 8l-23 -8q-1 15 -1 30q0 98 48.5 182t133 133t183 49t182.5 -49t133 -133t49 -182.5t-49 -182.5t-133 -133t-183 -49q-136 0 -239 90
q-9 8 -21.5 7t-20.5 -10t-7 -21.5t10 -20.5q119 -104 278 -104q115 0 213 56.5t154.5 154.5t56.5 212.5t-56.5 212.5t-154.5 154.5t-213 56.5zM406 298q-12 0 -18 -5.5t-6 -19.5q0 -25 26 -25h100v-85q0 -17 5.5 -24t21.5 -7t21 7t5 24v85h102q26 0 26 25t-26 25h-102v41
h102q26 0 26 25t-26 25h-74l93 156q7 12 7 20.5t-10 15.5q-10 6 -20 6t-20 -16l-104 -176l-104 176q-9 15 -20.5 15t-19.5 -6t-8 -15.5t5 -19.5l93 -156h-75q-12 0 -18 -5.5t-6 -19.5q0 -25 26 -25h100v-41h-102z" />
    <glyph glyph-name="uniE610" unicode="&#xe610;" 
d="M703 -63h-406q-39 0 -62 4.5t-39.5 18.5t-23 39.5t-6.5 68.5v438q0 11 8 19t19.5 8t19 -8t7.5 -19v-438v-32q0 -7 3 -19.5t6.5 -14.5t13.5 -6t21.5 -4.5t32.5 -0.5h406q23 0 33.5 0.5t22.5 3.5t16 7t8 13t5 21t1 32v438q0 11 8 19t19 8t19 -8t8 -19v-438q0 -77 -30 -104
t-110 -27zM694 655q-11 0 -19 8t-8 19v8q0 58 -15.5 72.5t-69.5 14.5h-163q-29 0 -43.5 -2.5t-22.5 -13.5t-9.5 -24.5t-1.5 -46.5v-8q0 -11 -8 -19t-19 -8t-19 8t-8 19v8q0 80 27.5 110.5t103.5 30.5h163q81 0 110 -33t29 -108v-8q0 -11 -8 -19t-19 -8zM342.5 73
q-5.5 0 -9.5 4t-4 9v27q0 6 4 10t9.5 4t9.5 -4t4 -10v-27q0 -5 -4 -9t-9.5 -4zM342.5 167q-5.5 0 -9.5 4t-4 10v230q0 6 4 10t9.5 4t9.5 -4t4 -10v-230q0 -6 -4 -10t-9.5 -4zM504.5 73q-5.5 0 -9.5 4t-4 9v325q0 6 4 10t9.5 4t9.5 -4t4 -10v-325q0 -5 -4 -9t-9.5 -4zM667 73
q-6 0 -9.5 4t-3.5 9v325q0 6 3.5 10t9.5 4t10 -4t4 -10v-325q0 -5 -4 -9t-10 -4zM951 590q0 -46 -32.5 -78.5t-78.5 -32.5h-657q-46 0 -79 32.5t-33 78.5v7q0 46 33 79t79 33h657q46 0 78.5 -33t32.5 -79v-7zM897 597q0 24 -16.5 41t-40.5 17h-657q-24 0 -40.5 -17
t-16.5 -41v-7q0 -23 16.5 -40t40.5 -17h657q24 0 40.5 17t16.5 40v7z" />
    <glyph glyph-name="uniE611" unicode="&#xe611;" 
d="M737 -62q-22 0 -43 11l-183 99l-184 -99q-22 -12 -48 -10.5t-46 15.5q-22 14 -32 37.5t-5 48.5l36 215l-156 155q-18 18 -23.5 42t2.5 48t27.5 39.5t44.5 19.5l211 32l92 190q11 23 33 36.5t48 13.5t48 -13.5t33 -36.5l92 -190l211 -32q25 -4 44 -19.5t27 -39.5t2.5 -48
t-23.5 -42l-155 -155l36 -215q4 -25 -6 -48.5t-31 -37.5q-23 -16 -52 -16zM511 106q7 0 13 -4l196 -105q20 -11 38 2q18 12 14 32l-38 229q-2 14 8 24l165 165q15 14 8 34q-7 19 -28 22l-226 34q-14 2 -20 15l-98 203q-10 20 -32.5 20t-31.5 -20l-98 -203q-7 -13 -21 -15
l-225 -34q-22 -3 -28 -22q-7 -20 8 -34l165 -165q10 -10 7 -24l-38 -229q-3 -20 14 -32q19 -13 38 -2l197 105q6 4 13 4zM213 437q-11 0 -13 12q-1 5 2.5 9.5t8.5 5.5l9 2q6 1 10.5 -2.5t5.5 -9t-2.5 -10t-8.5 -5.5l-9 -1q-2 -1 -3 -1zM263 445q-11 0 -13 11q-1 6 2 10.5
t9 5.5l146 29l56 127q5 12 17.5 6.5t7.5 -17.5l-58 -134q-3 -6 -10 -8l-154 -29q-2 -1 -3 -1z" />
    <glyph glyph-name="uniE612" unicode="&#xe612;" 
d="M512 -27q-35 0 -71 36q-38 37 -307 361q-70 71 -70 171q0 101 71 172l7 6q71 72 172 72t172 -72q2 -1 3 -3q9 -10 22 -10q14 0 20 9l4 4q71 72 172 72t173 -72l6 -6q71 -71 71 -172q0 -99 -70 -171q-263 -319 -304 -361q-36 -36 -71 -36zM314 734q-77 0 -132 -55l-6 -6
q-55 -55 -55 -132t55 -131q1 -1 1 -2q268 -323 304 -359q19 -19 30.5 -19t30.5 19q42 42 302 359l2 2q54 54 54 131t-54 132l-7 6q-54 55 -132 55q-76 0 -130 -53q-24 -32 -66 -32q-40 0 -66 31q-54 54 -131 54zM188 558h-4q-5 2 -8 7t-2 11q11 37 38 65l4 4
q28 27 64.5 37.5t73.5 1.5q6 -1 9 -6t2 -11t-6 -9t-11 -2q-30 7 -59.5 -1t-51.5 -30l-4 -4q-23 -23 -31 -53q-3 -10 -14 -10zM415 620q-6 0 -10 5q-7 7 -15 13q-12 8 -4 19.5t20 3.5q10 -7 19 -16q10 -10 0 -20q-4 -5 -10 -5z" />
    <glyph glyph-name="uniE613" unicode="&#xe613;" 
d="M402 151q-92 0 -169.5 45.5t-123 123.5t-45.5 169.5t45.5 169.5t123 123t169.5 45t170 -45t123 -123t45 -169.5t-45 -169.5t-123 -123.5t-170 -45.5zM402 772q-117 0 -200 -83t-83 -200t83 -200t200 -83t200 83t83 200t-83 200t-200 83zM202 594q-4 0 -7 2q-12 7 -5 19
q34 56 90.5 88t121.5 32q6 0 10 -4t4 -9.5t-4 -9.5t-10 -4q-57 0 -107.5 -29t-80.5 -78q-4 -7 -12 -7zM170 484q-6 0 -10 4t-4 9q0 21 6 48q2 6 7 9t10.5 1.5t8.5 -6t1 -10.5q-5 -24 -5 -42q0 -5 -4 -9t-10 -4zM874.5 -57q-34.5 0 -58.5 24l-223 223q-26 27 -16 60
q7 20 30 43q33 33 61 33q24 0 42 -19l223 -223q24 -24 24 -58t-24 -58.5t-58.5 -24.5zM630 232q1 -1 2 -3l223 -223q8 -7 19.5 -7t19.5 7q8 9 8 20t-8 19l-223 223q-2 3 -3 3q-11 -6 -22 -17q-16 -16 -16 -22z" />
    <glyph glyph-name="uniE614" unicode="&#xe614;" 
d="M746.5 476q-73.5 0 -125.5 52t-52 125.5t52 125.5t125.5 52t125.5 -52t52 -125.5t-52 -125.5t-125.5 -52zM747 774q-50 0 -85.5 -35.5t-35.5 -85t35.5 -85t85.5 -35.5t85 35.5t35 85t-35 85t-85 35.5zM681 683q-4 0 -8 3q-11 7 -4 19q28 41 78 41q5 0 9.5 -4t4.5 -10
t-4.5 -10t-9.5 -4q-35 0 -54 -29q-4 -6 -12 -6zM266 215q-82 0 -140 58t-58 140t58 140.5t140 58.5t140.5 -58.5t58.5 -140.5t-58.5 -140t-140.5 -58zM266 555q-59 0 -100.5 -41.5t-41.5 -100.5t41.5 -100.5t100.5 -41.5t100.5 41.5t41.5 100.5t-41.5 100.5t-100.5 41.5z
M176 399q-6 0 -10 4t-4 10v3q0 6 1 11q1 6 5.5 9.5t10.5 2t9.5 -6t1.5 -10.5v-4v-5q0 -6 -4 -10t-10 -4zM191 449q-4 0 -8 2q-11 8 -3 20q30 46 86 46q6 0 10 -4t4 -10t-4 -10t-10 -4q-40 0 -63 -34q-4 -6 -12 -6zM732.5 -63q-91.5 0 -156.5 65t-65 156.5t65 156.5t156.5 65
t156.5 -65t65 -156.5t-65 -156.5t-156.5 -65zM732.5 324q-68.5 0 -116.5 -48.5t-48 -116.5t48 -116.5t116.5 -48.5t116.5 48.5t48 116.5t-48 116.5t-116.5 48.5zM633 216q-4 0 -7 2q-12 8 -4 20q16 24 41.5 37.5t54.5 13.5q6 0 10 -4t4 -10t-4 -10t-10 -4q-47 0 -73 -39
q-4 -6 -12 -6zM409 457l-22 52l233 100l22 -52zM410 331l155 -76l-25 -51l-155 76z" />
    <glyph glyph-name="uniE615" unicode="&#xe615;" 
d="M501 55q-91 0 -168.5 45t-123 122.5t-45.5 169t45.5 169t123 122.5t168.5 45t169 -45t123 -122.5t45 -169t-45 -169t-123 -122.5t-169 -45zM501.5 673q-116.5 0 -199.5 -82.5t-83 -199t83 -199t199.5 -82.5t199 82.5t82.5 199t-82.5 199t-199 82.5zM339 537q-6 0 -10 5
q-9 10 1 19q42 39 97 54q5 1 10 -1.5t6 -8.5q4 -13 -9 -17q-48 -13 -85 -47q-4 -4 -10 -4zM282 451q-2 0 -4 1q-13 4 -9 17q6 17 15 32q6 12 18 5.5t6 -18.5q-8 -14 -13 -28q-3 -9 -13 -9zM508.5 583q-11.5 0 -19.5 8t-8 20v192q0 12 8 20t19.5 8t19.5 -8t8 -20v-192
q0 -12 -8 -20t-19.5 -8zM508.5 -63q-11.5 0 -19.5 8t-8 20v192q0 12 8 20t19.5 8t19.5 -8t8 -20v-192q0 -12 -8 -20t-19.5 -8zM916 350h-193q-11 0 -19 8t-8 19.5t8 19.5t19 8h193q11 0 19 -8t8 -19.5t-8 -19.5t-19 -8zM270 350h-193q-11 0 -19 8t-8 19.5t8 19.5t19 8h193
q11 0 19 -8t8 -19.5t-8 -19.5t-19 -8z" />
    <glyph glyph-name="uniE616" unicode="&#xe616;" 
d="M512 407q-52 0 -88.5 36.5t-36.5 88.5t36.5 89t88.5 37t89 -37t37 -89t-37 -88.5t-89 -36.5zM512.5 603q-29.5 0 -50 -20.5t-20.5 -50t20.5 -50t50 -20.5t50 20.5t20.5 50t-20.5 50t-50 20.5zM693 561q-11 0 -13 10q-1 5 -3 10q-1 5 -1 7q-6 12 6.5 17.5t18.5 -6.5l3 -12
q1 -6 2 -10q1 -5 -1.5 -10t-8.5 -6h-3zM668 619q-7 0 -11 7q-45 70 -127 81q-5 1 -8.5 5.5t-3 10t5 9t10.5 2.5q45 -6 83 -30.5t63 -63.5q7 -11 -5 -19q-3 -2 -7 -2zM512 -63q-61 0 -101 80q-52 101 -122.5 276.5t-70.5 244.5q0 121 86 207t207 86t207 -86t86 -207
q0 -68 -70.5 -245t-120.5 -276q-40 -80 -101 -80zM510.5 776q-98.5 0 -168.5 -70t-70 -168q0 -56 67 -224t120 -272q26 -50 53.5 -50t52.5 50q49 98 116.5 269t67.5 227q0 98 -70 168t-168.5 70z" />
    <glyph glyph-name="uniE617" unicode="&#xe617;" 
d="M964 34q0 -40 -28 -68.5t-68 -28.5h-714q-40 0 -68.5 28.5t-28.5 68.5v700q0 40 28.5 68.5t68.5 28.5h714q40 0 68 -28.5t28 -68.5v-700zM909 734q0 17 -12 29t-29 12h-714q-17 0 -29 -12t-12 -29v-700q0 -17 12 -29t29 -12h714q17 0 29 12t12 29v700zM931 621h-851
q-6 0 -10 4t-4 10t4 10t10 4h851q6 0 10 -4t4 -10t-4 -10t-10 -4zM177 691h-14q-5 0 -9.5 4t-4.5 10t4.5 10t9.5 4h14q6 0 10 -4t4 -10t-4 -10t-10 -4zM275 691h-14q-6 0 -10 4t-4 10t4 10t10 4h14q6 0 10 -4t4 -10t-4 -10t-10 -4zM373 691h-14q-6 0 -10 4t-4 10t4 10t10 4
h14q6 0 10 -4t4 -10t-4 -10t-10 -4zM361 126q-6 0 -11 5l-128 158q-7 9 0 18l79 97q9 11 20 2t2 -20l-72 -88l121 -149q9 -11 -2 -20q-4 -3 -9 -3zM348 426q-5 0 -8 3q-11 9 -2 20l12 16q9 10 20 1.5t2 -19.5l-13 -16q-4 -5 -11 -5zM664 126q-5 0 -9 3q-11 9 -2 20l121 149
l-121 149q-9 11 2 19.5t19 -1.5l128 -158q8 -9 0 -18l-128 -158q-4 -5 -10 -5zM454 200q-5 0 -9 3q-10 9 -2 20l128 158q9 11 20 2t2 -20l-128 -158q-4 -5 -11 -5z" />
    <glyph glyph-name="uniE618" unicode="&#xe618;" 
d="M951 609q0 -84 -59.5 -143.5t-143.5 -59.5h-475q-83 0 -142.5 59.5t-59.5 143.5v7q0 84 59.5 143.5t142.5 59.5h475q84 0 143.5 -59.5t59.5 -143.5v-7zM896 616q0 61 -43.5 104.5t-104.5 43.5h-475q-61 0 -104 -43.5t-43 -104.5v-7q0 -61 43 -104.5t104 -43.5h475
q61 0 104.5 43.5t43.5 104.5v7zM840.5 571q-5.5 0 -9.5 4t-4 10v7q0 44 -33 73.5t-79 29.5h-58q-6 0 -10 4t-4 9.5t4 9.5t10 4h58q57 0 98 -37.5t41 -92.5v-7q0 -6 -4 -10t-9.5 -4zM602 695h-28q-5 0 -9 4t-4 9.5t4 9.5t9 4h28q6 0 10 -4t4 -9.5t-4 -9.5t-10 -4zM286.5 498
q-49.5 0 -84.5 35t-35 84.5t35 84.5t84.5 35t84.5 -35t35 -84.5t-35 -84.5t-84.5 -35zM286 682q-27 0 -45.5 -19t-18.5 -46t18.5 -45.5t45.5 -18.5t46 18.5t19 45.5t-19 46t-46 19zM951 128q0 -84 -59.5 -143.5t-143.5 -59.5h-475q-83 0 -142.5 59.5t-59.5 143.5v7
q0 84 59.5 143.5t142.5 59.5h475q84 0 143.5 -59.5t59.5 -143.5v-7zM896 135q0 61 -43.5 104.5t-104.5 43.5h-475q-61 0 -104 -43.5t-43 -104.5v-7q0 -61 43 -104.5t104 -43.5h475q61 0 104.5 43.5t43.5 104.5v7zM181 95q-6 0 -10 4t-4 10v2q0 2 -0.5 7t-0.5 8q1 13 14 12
q6 -1 10 -5.5t4 -9.5q0 -2 0.5 -6t0.5 -6v-2q0 -6 -4 -10t-10 -4zM193 158q-4 0 -7 2q-12 7 -5 18q18 32 49.5 50t67.5 18q6 0 10 -4t4 -9.5t-4 -9.5t-10 -4q-29 0 -54 -14.5t-39 -39.5q-4 -7 -12 -7zM727.5 17q-49.5 0 -84.5 35t-35 84.5t35 84.5t84.5 35t84.5 -35
t35 -84.5t-35 -84.5t-84.5 -35zM727.5 201q-26.5 0 -45.5 -19t-19 -46t19 -45.5t45.5 -18.5t45.5 18.5t19 45.5t-19 46t-45.5 19z" />
    <glyph glyph-name="uniE619" unicode="&#xe619;" 
d="M826 22q0 -40 -28.5 -68.5t-68.5 -28.5h-434q-40 0 -68.5 28.5t-28.5 68.5v700q0 40 28.5 68.5t68.5 28.5h434q40 0 68.5 -28.5t28.5 -68.5v-700zM770 722q0 17 -12 29t-29 12h-434q-17 0 -29 -12t-12 -29v-700q0 -17 12 -29t29 -12h434q17 0 29 12t12 29v700zM798 107
h-573q-6 0 -10 4t-4 10t4 10t10 4h573q5 0 9 -4t4 -10t-4 -10t-9 -4zM798 665h-573q-6 0 -10 4t-4 10t4 10t10 4h573q5 0 9 -4t4 -10t-4 -10t-9 -4zM547 47q0 -10 -7 -17t-18 -7h-7q-10 0 -17 7t-7 17v7q0 11 7 18t17 7h7q11 0 18 -7t7 -18v-7zM575 417q-2 0 -5 1
q-13 5 -8 18l4 11q4 13 17.5 8t8.5 -18l-4 -11q-3 -9 -13 -9zM522 266h-5q-13 5 -8 18l39 113q5 13 18 8.5t9 -17.5l-40 -113q-3 -9 -13 -9zM465 371q-2 0 -4 1q-14 4 -9 17l58 165q5 14 18 9t8 -18l-58 -165q-3 -9 -13 -9zM438 293q-2 0 -5 1q-13 5 -8 18l8 24q5 13 18 8.5
t9 -17.5l-9 -24q-3 -10 -13 -10z" />
    <glyph glyph-name="uniE61A" unicode="&#xe61a;" 
d="M956 35q0 -40 -28 -68t-68 -28h-699q-40 0 -68.5 28t-28.5 68v378q0 41 28.5 69t68.5 28h699q40 0 68 -28t28 -69v-378zM901 413q0 17 -12 29t-29 12h-699q-17 0 -29 -12t-12 -29v-378q0 -17 12 -29t29 -12h699q17 0 29 12t12 29v378zM270 329h-13q-6 0 -10 4t-4 10t4 10
t10 4h13q6 0 10 -4t4 -10t-4 -10t-10 -4zM368 329h-14q-6 0 -10 4t-4 10t4 10t10 4h14q6 0 10 -4t4 -10t-4 -10t-10 -4zM466 329h-14q-6 0 -10 4t-4 10t4 10t10 4h14q5 0 9.5 -4t4.5 -10t-4.5 -10t-9.5 -4zM549 329h-14q-5 0 -9.5 4t-4.5 10t4.5 10t9.5 4h14q6 0 10 -4
t4 -10t-4 -10t-10 -4zM647 329h-14q-6 0 -10 4t-4 10t4 10t10 4h14q6 0 10 -4t4 -10t-4 -10t-10 -4zM744 329h-13q-6 0 -10 4t-4 10t4 10t10 4h13q6 0 10 -4t4 -10t-4 -10t-10 -4zM270 245h-13q-6 0 -10 4t-4 10t4 10t10 4h13q6 0 10 -4t4 -10t-4 -10t-10 -4zM368 245h-14
q-6 0 -10 4t-4 10t4 10t10 4h14q6 0 10 -4t4 -10t-4 -10t-10 -4zM466 245h-14q-6 0 -10 4t-4 10t4 10t10 4h14q5 0 9.5 -4t4.5 -10t-4.5 -10t-9.5 -4zM549 245h-14q-5 0 -9.5 4t-4.5 10t4.5 10t9.5 4h14q6 0 10 -4t4 -10t-4 -10t-10 -4zM647 245h-14q-6 0 -10 4t-4 10t4 10
t10 4h14q6 0 10 -4t4 -10t-4 -10t-10 -4zM744 245h-13q-6 0 -10 4t-4 10t4 10t10 4h13q6 0 10 -4t4 -10t-4 -10t-10 -4zM270 78h-13q-6 0 -10 4t-4 10t4 10t10 4h13q6 0 10 -4t4 -10t-4 -10t-10 -4zM661 78h-307q-6 0 -10 4t-4 10t4 10t10 4h307q6 0 10 -4t4 -10t-4 -10
t-10 -4zM744 78h-13q-6 0 -10 4t-4 10t4 10t10 4h13q6 0 10 -4t4 -10t-4 -10t-10 -4zM270 162h-13q-6 0 -10 4t-4 9.5t4 9.5t10 4h13q6 0 10 -4t4 -9.5t-4 -9.5t-10 -4zM368 162h-14q-6 0 -10 4t-4 9.5t4 9.5t10 4h14q6 0 10 -4t4 -9.5t-4 -9.5t-10 -4zM466 162h-14
q-6 0 -10 4t-4 9.5t4 9.5t10 4h14q5 0 9.5 -4t4.5 -9.5t-4.5 -9.5t-9.5 -4zM549 162h-14q-5 0 -9.5 4t-4.5 9.5t4.5 9.5t9.5 4h14q6 0 10 -4t4 -9.5t-4 -9.5t-10 -4zM647 162h-14q-6 0 -10 4t-4 9.5t4 9.5t10 4h14q6 0 10 -4t4 -9.5t-4 -9.5t-10 -4zM744 162h-13q-6 0 -10 4
t-4 9.5t4 9.5t10 4h13q6 0 10 -4t4 -9.5t-4 -9.5t-10 -4zM505 470q-14 0 -22 11q-7 9 -5.5 20.5t10.5 18.5q21 17 34.5 37.5t13.5 38.5q1 21 -17 36q-17 14 -27 23.5t-24.5 30t-18.5 38.5t2 44t26 53q8 9 19 10.5t20.5 -5.5t11 -18.5t-5.5 -20.5q-24 -30 -17 -53t50 -60
q38 -32 37 -79q-1 -31 -19.5 -62.5t-50.5 -56.5q-7 -6 -17 -6z" />
    <glyph glyph-name="uniE61B" unicode="&#xe61b;" 
d="M826 34q0 -40 -28.5 -68.5t-68.5 -28.5h-434q-40 0 -68.5 28.5t-28.5 68.5v700q0 40 28.5 68.5t68.5 28.5h434q40 0 68.5 -28.5t28.5 -68.5v-700zM770 734q0 17 -12 29t-29 12h-434q-17 0 -29 -12t-12 -29v-700q0 -17 12 -29t29 -12h434q17 0 29 12t12 29v700zM798 119
h-573q-6 0 -10 4t-4 10t4 10t10 4h573q5 0 9 -4t4 -10t-4 -10t-9 -4zM798 677h-573q-6 0 -10 4t-4 10t4 10t10 4h573q5 0 9 -4t4 -10t-4 -10t-9 -4zM547 59q0 -10 -7 -17t-18 -7h-7q-10 0 -17 7t-7 17v7q0 11 7 18t17 7h7q11 0 18 -7t7 -18v-7zM575 429q-2 0 -5 1
q-13 5 -8 18l4 11q4 13 17.5 8t8.5 -18l-4 -11q-3 -9 -13 -9zM522 278h-5q-13 5 -8 18l39 113q5 13 18 8.5t9 -17.5l-40 -113q-3 -9 -13 -9zM465 383q-2 0 -4 1q-14 4 -9 17l58 165q5 14 18 9t8 -18l-58 -165q-3 -9 -13 -9zM438 305q-2 0 -5 1q-13 5 -8 18l8 24q5 13 18 8.5
t9 -17.5l-9 -24q-3 -10 -13 -10z" />
    <glyph glyph-name="uniE61C" unicode="&#xe61c;" 
d="M353 -62q-112 0 -192 80l-8 9q-80 79 -80 191.5t80 191.5l190 191q80 79 192 79t192 -79l9 -9q79 -79 79 -191.5t-79 -192.5l-191 -190q-80 -80 -192 -80zM535 626q-90 0 -153 -63l-191 -191q-64 -64 -64 -154t64 -153l9 -9q63 -64 153 -64t154 64l190 191q64 63 64 153
t-64 154l-9 9q-63 63 -153 63zM198 129q-7 0 -11 6q-78 113 41 228l43 43q9 9 18.5 -0.5t0.5 -18.5l-43 -43q-103 -100 -38 -194q8 -11 -3 -19q-4 -2 -8 -2zM230.5 89q-5.5 0 -9.5 4l-6 7q-10 9 -0.5 18.5t19.5 0.5l6 -7q10 -9 0 -19q-4 -4 -9.5 -4zM686 183q-3 0 -6 2
q-75 38 -139 89t-101.5 93t-68 87.5t-39 63t-13.5 28.5q-5 12 7.5 17.5t17.5 -7.5q4 -8 12 -24.5t37.5 -60.5t66 -85t98.5 -91t134 -86q12 -6 6 -18q-4 -8 -12 -8zM535 396q-6 0 -10 4q-9 10 0 19l48 48q10 10 19.5 0.5t-0.5 -19.5l-47 -48q-4 -4 -10 -4zM725 537
q-11 0 -18.5 7.5t-8.5 17.5q-1 4 -0.5 11t6 25t16 35t34.5 38t57 38q18 8 33 22t24 27t16 26.5t9 19t2 8.5q3 11 13 16.5t21 2.5t16 -13t2 -21q-1 -4 -3.5 -11.5t-12 -26t-21 -34.5t-31.5 -34.5t-44 -30.5t-41 -26t-25 -25t-12.5 -21.5t-4.5 -15.5v-6q1 -11 -6.5 -19.5
t-18.5 -9.5h-2z" />
    <glyph glyph-name="uniE61D" unicode="&#xe61d;" 
d="M814 -63q-60 0 -132 56.5t-107 128.5h-126q-34 -72 -106.5 -127.5t-132.5 -55.5q-41 0 -74 31t-52 75.5t-31.5 100t-17 99.5t-4.5 79q0 98 68.5 167.5t165.5 69.5h494q97 0 165 -69t68 -167q0 -35 -4 -79t-16.5 -100t-31.5 -101t-52 -76.5t-74 -31.5zM431 177h162
q19 0 26 -18q24 -62 87.5 -114.5t107.5 -52.5q29 0 53.5 35t39.5 87.5t23 108t8 102.5q0 75 -52.5 128.5t-126.5 53.5h-494q-73 0 -126 -54.5t-53 -128.5q0 -52 8.5 -108.5t23.5 -106.5t39.5 -82.5t52.5 -32.5q45 0 108 52t87 113q7 18 26 18zM491 205h-13q-6 0 -10 4
t-4 9.5t4 9.5t10 4h13q6 0 10 -4t4 -9.5t-4 -9.5t-10 -4zM211 31q-5 0 -9 4t-4 9.5t4 9.5t9 4q30 0 86.5 57.5t75.5 107.5q4 9 13 9h50q6 0 10 -4t4 -9.5t-4 -9.5t-10 -4h-41q-25 -56 -84.5 -115t-99.5 -59zM512 510q-13 0 -21 10q-8 8 -7 19.5t10 18.5q38 31 39 65
q0 16 -13.5 28.5t-21.5 20.5t-20.5 26.5t-15.5 34.5t1.5 39.5t21.5 47.5q7 9 18 10.5t20.5 -5t11 -17.5t-4.5 -21q-19 -25 -13.5 -44.5t39.5 -50.5q33 -29 32 -70q-2 -59 -59 -106q-7 -6 -17 -6zM263.5 204q-5.5 0 -9.5 4t-4 9v192q0 6 4 10t9.5 4t9.5 -4t4 -10v-192
q0 -5 -4 -9t-9.5 -4zM354 301h-192q-6 0 -10 4t-4 9.5t4 9.5t10 4h192q6 0 10 -4t4 -9.5t-4 -9.5t-10 -4zM768.5 312q-19.5 0 -33 14t-13.5 33.5t13 32.5q14 14 34 14t33 -14q14 -13 14 -32.5t-14 -33.5t-33.5 -14zM768.5 379q-8.5 0 -14 -6t-5.5 -14t5.5 -13.5t14 -5.5
t14 5.5t5.5 13.5t-5.5 14t-14 6zM843.5 237q-19.5 0 -33 13.5t-13.5 33t14 33.5q13 14 33 14t33 -14q14 -14 14 -33.5t-14 -33t-33.5 -13.5zM844 304q-8 0 -14 -6t-6 -14t6 -13.5t14 -5.5t13.5 5.5t5.5 13.5t-5.5 14t-13.5 6zM693.5 237q-19.5 0 -33.5 13.5t-14 33t14 33.5
q13 14 33 14t34 -14q13 -14 13 -33.5t-13.5 -33t-33 -13.5zM693 304q-8 0 -13.5 -6t-5.5 -14t5.5 -14t14 -5.5t14 6t5.5 13.5t-6 14t-14 6zM768.5 162q-19.5 0 -33 13.5t-13.5 33t13 33.5q14 13 34 13t33 -13q14 -14 14 -33.5t-14 -33t-33.5 -13.5zM769 228q-8 0 -14 -5.5
t-6 -13.5t5.5 -14t14 -6t14 6t5.5 14t-5.5 13.5t-13.5 5.5z" />
    <glyph glyph-name="uniE61E" unicode="&#xe61e;" 
d="M712 -61h-383q-11 0 -19.5 8t-8.5 20t8.5 20t19.5 8h383q12 0 20.5 -8t8.5 -20t-8.5 -20t-20.5 -8zM980 207q0 -41 -29 -69.5t-69 -28.5h-740q-40 0 -69 28.5t-29 69.5v527q0 40 29 69t69 29h740q40 0 69 -29t29 -69v-527zM923 734q0 17 -12 29t-29 12h-740
q-17 0 -29 -12t-12 -29v-527q0 -17 12 -29.5t29 -12.5h740q17 0 29 12.5t12 29.5v527zM953 265h-879q-6 0 -10 4t-4 10t4 10t10 4h879q6 0 10 -4t4 -10t-4 -10t-10 -4zM953 676h-879q-6 0 -10 4t-4 10t4 10t10 4h879q6 0 10 -4t4 -10t-4 -10t-10 -4zM462 469q-2 0 -5 1
q-13 5 -8 18l4 10q5 14 18.5 8.5t7.5 -18.5l-3 -10q-4 -9 -14 -9zM408 330q-2 0 -5 1q-13 5 -8 19l40 103q6 13 19 8t8 -18l-40 -104q-4 -9 -14 -9zM351 427q-3 0 -5 1q-13 5 -8 18l58 151q6 13 19 8t8 -18l-59 -151q-3 -9 -13 -9zM323 356q-2 0 -5 1q-13 5 -8 18l9 22
q5 14 18 8.5t8 -18.5l-9 -22q-3 -9 -13 -9z" />
    <glyph glyph-name="uniE61F" unicode="&#xe61f;" 
d="M863 31q0 -39 -27.5 -66.5t-66.5 -27.5h-516q-39 0 -66.5 27.5t-27.5 66.5v625q0 39 27.5 66t66.5 27h516q39 0 66.5 -27t27.5 -66v-625zM809 656q0 16 -12 27.5t-28 11.5h-516q-17 0 -28.5 -11.5t-11.5 -27.5v-625q0 -16 11.5 -28t28.5 -12h516q16 0 28 12t12 28v625z
M707 32h-222q-5 0 -9 4t-4 9.5t4 9.5t9 4h222q16 0 25 17.5t9 47.5v43q0 6 4 10t9.5 4t9.5 -4t4 -10v-43q0 -42 -16.5 -67t-44.5 -25zM757.5 222q-5.5 0 -9.5 4t-4 9.5t4 9.5q10 10 19 0q4 -4 4 -9.5t-4 -9.5t-9.5 -4zM294 601q-11 0 -19 7.5t-8 19.5v176q0 11 8 19t19 8
t19 -8t8 -19v-176q0 -12 -8 -19.5t-19 -7.5zM443 601q-11 0 -19 7.5t-8 19.5v176q0 11 8 19t19 8t19 -8t8 -19v-176q0 -12 -8 -19.5t-19 -7.5zM592 601q-11 0 -19 7.5t-8 19.5v176q0 11 8 19t19 8t19 -8t8 -19v-176q0 -12 -8 -19.5t-19 -7.5zM741 601q-11 0 -19 7.5t-8 19.5
v176q0 11 8 19t19 8t19 -8t8 -19v-176q0 -12 -8 -19.5t-19 -7.5zM837 492h-650q-5 0 -9 4t-4 9.5t4 9.5t9 4h650q6 0 10 -4t4 -9.5t-4 -9.5t-10 -4z" />
    <glyph glyph-name="uniE620" unicode="&#xe620;" 
d="M959 144q0 -40 -28 -68t-68 -28h-702q-40 0 -68 28t-28 68v483q0 39 28 67t68 28h702q40 0 68 -28t28 -67v-483zM904 627q0 16 -12 28t-29 12h-702q-17 0 -29 -12t-12 -28v-483q0 -17 12 -29t29 -12h702q17 0 29 12t12 29v483zM780 90q-6 0 -10 4t-4 9v36
q0 24 -16.5 42.5t-37.5 18.5h-401q-21 0 -37 -18.5t-16 -42.5v-36q0 -5 -4 -9t-10 -4t-10 4t-4 9v36q0 35 24.5 61.5t56.5 26.5h401q32 0 57 -26.5t25 -61.5v-36q0 -5 -4 -9t-10 -4zM675 296h-328q-60 0 -102.5 40t-42.5 96q0 6 4 10t10 4t10 -4t4 -10q0 -46 34 -77.5
t83 -31.5h328q51 0 85 30t34 74v12q0 47 -35.5 82.5t-83.5 35.5h-328q-34 0 -70 -26q-11 -8 -19 3.5t3 19.5q43 31 86 31h328q59 0 102.5 -44t43.5 -102v-12q0 -56 -41.5 -93.5t-104.5 -37.5zM222 464h-4q-13 5 -9 18q3 9 8 17q6 13 18 6.5t6 -18.5l-6 -14q-3 -9 -13 -9z
M367.5 347q-34.5 0 -58.5 24.5t-24 59t24 59t58.5 24.5t59 -24.5t24.5 -59t-24.5 -59t-59 -24.5zM368 486q-23 0 -39.5 -16.5t-16.5 -39.5t16.5 -39t39.5 -16t39.5 16t16.5 39t-16.5 39.5t-39.5 16.5zM670.5 347q-34.5 0 -59 24.5t-24.5 59t24.5 59t59 24.5t59 -24.5
t24.5 -59t-24.5 -59t-59 -24.5zM670 486q-23 0 -39.5 -16.5t-16.5 -39.5t16.5 -39t39.5 -16t39.5 16t16.5 39t-16.5 39.5t-39.5 16.5z" />
    <glyph glyph-name="uniE621" unicode="&#xe621;" 
d="M860 86h-69q-11 0 -19 8t-8 19t8 19t19 8h69q16 0 30.5 13.5t14.5 30.5v341q0 16 -14.5 25.5t-30.5 9.5h-706q-15 0 -25 -9.5t-10 -25.5v-341q0 -18 10 -31t25 -13h82q11 0 19 -8t8 -19t-8 -19t-19 -8h-82q-38 0 -63.5 29t-25.5 69v341q0 38 24.5 63.5t64.5 25.5h706
q40 0 69.5 -26t29.5 -63v-341q0 -39 -30.5 -68.5t-68.5 -29.5zM810 31q0 -39 -27.5 -66.5t-66.5 -27.5h-408q-39 0 -66.5 27.5t-27.5 66.5v178q0 39 27.5 66.5t66.5 27.5h408q39 0 66.5 -27.5t27.5 -66.5v-178zM756 209q0 16 -12 28t-28 12h-408q-16 0 -28 -12t-12 -28v-178
q0 -16 12 -28t28 -12h408q16 0 28 12t12 28v178zM783 560q-11 0 -19 8t-8 19v154q0 16 -14.5 26t-30.5 10h-408q-15 0 -25 -9.5t-10 -26.5v-154q0 -11 -8 -19t-19 -8t-19 8t-8 19v154q0 39 24.5 64.5t64.5 25.5h408q40 0 69.5 -26t29.5 -64v-154q0 -11 -8 -19t-19 -8z
M236 479h-40q-6 0 -10 4t-4 9.5t4 9.5t10 4h40q6 0 10 -4t4 -9.5t-4 -9.5t-10 -4zM331 479h-41q-5 0 -9 4t-4 9.5t4 9.5t9 4h41q5 0 9 -4t4 -9.5t-4 -9.5t-9 -4zM778 357h-542q-6 0 -9.5 4t-3.5 9.5t3.5 9.5t9.5 4h542q5 0 9 -4t4 -9.5t-4 -9.5t-9 -4z" />
    <glyph glyph-name="uniE622" unicode="&#xe622;" 
d="M332 -63q-22 0 -42 13t-50 42l-105 106q-29 29 -43 50t-16 44q-4 43 51 98l372 386q8 8 19 8t20 -8l258 -259q8 -7 8 -18.5t-8 -19.5l-372 -385q-28 -29 -49 -43t-43 -14zM519 618l-353 -366q-38 -37 -36.5 -55.5t43.5 -60.5l106 -105q39 -40 52.5 -40t54.5 41l353 366z
M752 415q-11 0 -19 8t-8 19.5t8 19.5l123 123q38 38 38.5 48t-34.5 44l-65 65q-35 35 -47 35q-13 0 -49 -36l-123 -123q-8 -8 -19.5 -8t-19 8t-7.5 19.5t8 19.5l123 122q25 26 44.5 39t41.5 13h1q20 0 39.5 -12t46.5 -39l65 -65q36 -36 45 -61.5t-2.5 -48.5t-47.5 -59
l-123 -123q-8 -8 -19 -8zM653.5 606q-5.5 0 -9.5 4t-4 9.5t4 9.5t9.5 4t9.5 -4t4 -9.5t-4 -9.5t-9.5 -4zM690.5 643q-5.5 0 -9.5 4q-9 10 0 19l67 67q10 10 19.5 0.5t-0.5 -19.5l-67 -67q-4 -4 -9.5 -4zM690.5 567q-5.5 0 -9.5 4q-9 9 0 19l106 105q9 10 18.5 0.5t0.5 -19.5
l-106 -105q-4 -4 -9.5 -4zM729 528q-6 0 -10 4q-9 10 0 19l106 106q9 9 19 -0.5t0 -18.5l-105 -106q-4 -4 -10 -4z" />
    <glyph glyph-name="uniE623" unicode="&#xe623;" 
d="M678 -63q-44 0 -85 41l-488 488q-53 53 -38 107q15 55 85 74l667 178q38 10 69.5 2t49.5 -32q31 -40 14 -103l-178 -667q-11 -41 -36.5 -64.5t-59.5 -23.5zM860 775q-12 0 -26 -4l-667 -178q-40 -11 -46 -34q-6 -24 23 -53l489 -489q24 -24 45 -24q29 0 42 47l178 666
q10 37 -4 55q-11 14 -34 14zM733 243q-2 0 -4 1q-6 1 -8.5 6t-1.5 11l1 5q2 6 7 9t10.5 1.5t8.5 -6.5t2 -11l-2 -5q-3 -11 -13 -11zM694 94h-4q-5 2 -8 7t-2 10l30 115q1 6 6 8.5t11 1t8.5 -6t1.5 -10.5l-30 -115q-3 -10 -13 -10zM373.5 209q-11.5 0 -19.5 8t-8 20t8 20
l187 187q9 9 20.5 9t19.5 -8.5t8 -20t-8 -19.5l-188 -188q-8 -8 -19.5 -8z" />
    <glyph glyph-name="uniE624" unicode="&#xe624;" 
d="M888 34q0 -40 -28.5 -68.5t-68.5 -28.5h-560q-40 0 -68.5 28.5t-28.5 68.5v700q0 40 28.5 68.5t68.5 28.5h560q40 0 68.5 -28.5t28.5 -68.5v-700zM832 734q0 17 -12 29t-29 12h-560q-17 0 -29 -12t-12 -29v-700q0 -17 12 -29t29 -12h560q17 0 29 12t12 29v700zM329 -49
q-6 0 -10 4t-4 10v838q0 6 4 10t10 4t10 -4t4 -10v-838q0 -6 -4 -10t-10 -4zM727 21h-228q-6 0 -10 4t-4 10t4 10t10 4h228q18 0 33.5 19t15.5 48v45q0 5 4 9.5t10 4.5t10 -4.5t4 -9.5v-45q0 -42 -23 -68.5t-54 -26.5zM779.5 217q-5.5 0 -10 4t-4.5 10t4 10t10 4t10 -4
t4 -9.5t-4 -10.5q-4 -4 -9.5 -4zM692 518q-3 0 -6 1l-78 37l-77 -37q-7 -3 -13.5 1t-6.5 12v271q0 6 4 10t10 4h167q6 0 10 -4t4 -10v-271q0 -8 -6 -12q-4 -2 -8 -2zM608.5 586q3.5 0 5.5 -2l64 -30v235h-139v-235l63 30q3 2 6.5 2z" />
    <glyph glyph-name="uniE625" unicode="&#xe625;" 
d="M957 129q0 -40 -27.5 -67.5t-67.5 -27.5h-703q-39 0 -67 27.5t-28 67.5v510q0 40 28 67.5t67 27.5h703q40 0 67.5 -27.5t27.5 -67.5v-510zM902 639q0 17 -11.5 29t-28.5 12h-703q-16 0 -28 -12t-12 -29v-510q0 -17 12 -29t28 -12h703q17 0 28.5 12t11.5 29v510zM499 302
q-5 0 -9 4l-230 187q-11 9 -2 19.5t19 1.5l222 -180l217 172q11 9 19.5 -2t-2.5 -19l-225 -180q-4 -3 -9 -3zM300 244q-5 0 -9 3q-10 9 -2 20l6 7q9 10 19.5 1.5t1.5 -19.5l-6 -7q-4 -5 -10 -5zM335 286q-5 0 -9 4q-10 9 -1 19l77 87q9 10 19.5 1t1.5 -19l-78 -87
q-4 -5 -10 -5zM679 261q-7 0 -11 5l-83 98q-8 11 2.5 20t19.5 -2l82 -99q9 -10 -2 -19q-3 -3 -8 -3z" />
    <glyph glyph-name="uniE626" unicode="&#xe626;" 
d="M720 -60h-386q-78 0 -113.5 26.5t-35.5 104.5v322q0 11 8.5 19t20.5 8h600q11 0 18 -8t7 -19v-322q0 -40 -3.5 -61.5t-15 -39.5t-35.5 -24t-65 -6zM239 366v-295q0 -51 16.5 -64.5t78.5 -13.5h386q49 0 57 9t8 64v5v295h-546zM305.5 153q-5.5 0 -9.5 4t-4 9v147
q0 5 4.5 9t10.5 4h67q5 0 9 -3.5t4 -9t-4 -9.5t-9 -4h-55v-134q0 -5 -4 -9t-9.5 -4zM305.5 86q-5.5 0 -9.5 4t-4 10v13q0 6 4 9.5t9.5 3.5t9.5 -3.5t4 -9.5v-13q0 -6 -4 -10t-9.5 -4zM719 380q-11 0 -19 7.5t-8 18.5v196q0 72 -49 125t-117 53h-2q-71 0 -125 -53.5
t-54 -124.5v-196q0 -11 -7.5 -18.5t-18.5 -7.5t-19 7.5t-8 18.5v196q0 92 70 161.5t162 69.5h2q91 0 155 -67.5t64 -163.5v-196q0 -11 -7.5 -18.5t-18.5 -7.5z" />
    <glyph glyph-name="uniE627" unicode="&#xe627;" 
d="M823 -63h-614q-80 0 -111 33.5t-31 116.5v603q0 81 29.5 111t112.5 30h474q10 0 18 -7l247 -200q13 -10 13 -22v-515q0 -81 -28.5 -115.5t-109.5 -34.5zM209 775q-59 0 -72.5 -14t-13.5 -71v-603q0 -60 14.5 -77t71.5 -17h614q29 0 43 2.5t24 12.5t12.5 27.5t2.5 51.5
v502l-232 186h-464zM694 482h-357q-30 0 -45.5 12t-15.5 48v247q0 6 4.5 10t10 4t9.5 -4t4 -10v-247q0 -12 0.5 -16t3.5 -9t9.5 -6t19.5 -1h357q19 0 24 4.5t5 27.5v205q0 6 4 10t10 4t10 -4t4 -10v-205q0 -32 -11 -46t-46 -14zM611.5 593q-11.5 0 -19.5 8.5t-8 19.5v84
q0 12 8 20t19.5 8t19.5 -8t8 -20v-84q0 -11 -8 -19.5t-19.5 -8.5zM411 286h-112q-6 0 -10 4t-4 10t4 10t10 4h112q6 0 10 -4t4 -10t-4 -10t-10 -4zM606 286h-139q-6 0 -10 4t-4 10t4 10t10 4h139q6 0 10 -4t4 -10t-4 -10t-10 -4zM718 286h-56q-6 0 -10 4t-4 10t4 10t10 4h56
q6 0 10 -4t4 -10t-4 -10t-10 -4zM355 216h-56q-6 0 -10 4.5t-4 10t4 9.5t10 4h56q6 0 10 -4t4 -9.5t-4 -10t-10 -4.5zM523 216h-112q-6 0 -10 4.5t-4 10t4 9.5t10 4h112q5 0 9.5 -4t4.5 -9.5t-4.5 -10t-9.5 -4.5zM718 216h-140q-5 0 -9.5 4.5t-4.5 10t4.5 9.5t9.5 4h140
q6 0 10 -4t4 -9.5t-4 -10t-10 -4.5zM439 133h-140q-6 0 -10 4t-4 9.5t4 10t10 4.5h140q6 0 10 -4.5t4 -10t-4 -9.5t-10 -4zM537 133h-42q-6 0 -10 4t-4 9.5t4 10t10 4.5h42q5 0 9.5 -4.5t4.5 -10t-4.5 -9.5t-9.5 -4z" />
    <glyph glyph-name="uniE628" unicode="&#xe628;" 
d="M853 -20h-700q-39 0 -64 28t-25 68v616q0 41 25 69.5t64 28.5h259q9 0 16.5 -6t10.5 -15l28 -119h386q41 0 72.5 -29t31.5 -68v-477q0 -39 -31.5 -67.5t-72.5 -28.5zM153 734q-16 0 -24.5 -12t-8.5 -30v-616q0 -17 8.5 -28.5t24.5 -11.5h700q18 0 33.5 12t15.5 28v477
q0 16 -15.5 29t-33.5 13h-408q-9 0 -17 6t-10 15l-28 118h-237zM801 78h-144q-6 0 -10 4t-4 10t4 10t10 4h144q9 0 14.5 1.5t11 9t5.5 21.5v51q0 6 4 10t10 4t10 -4t4 -10v-51q0 -29 -16.5 -44.5t-42.5 -15.5zM839.5 239q-5.5 0 -10.5 4q-4 4 -4 10t4 10q10 10 20 0
q4 -4 4 -10t-4 -10t-9.5 -4zM880 706h-349q-12 0 -20 8.5t-8 20t8 19.5t20 8h349q12 0 20 -8t8 -19.5t-8 -20t-20 -8.5z" />
    <glyph glyph-name="uniE629" unicode="&#xe629;" 
d="M512 142q-81 0 -138 57t-57 138t57 138.5t138 57.5t138.5 -57.5t57.5 -138.5t-57.5 -138t-138.5 -57zM512.5 506q-69.5 0 -119 -49.5t-49.5 -119t49.5 -119t119 -49.5t119 49.5t49.5 119t-49.5 119t-119 49.5zM412 377q-4 0 -7 2q-12 7 -5 19q20 34 54.5 53.5t74.5 19.5
q5 0 9.5 -4t4.5 -9.5t-4 -9.5t-10 -4q-32 0 -60.5 -16.5t-45.5 -44.5q-4 -6 -11 -6zM392.5 312q-5.5 0 -9.5 4t-4 10q0 12 4 29q3 14 16 11q6 -2 9 -6.5t2 -10.5q-4 -14 -4 -23q0 -6 -4 -10t-9.5 -4zM864 0h-703q-40 0 -68.5 28.5t-28.5 67.5v428q0 39 28 67t69 28h66l48 95
q0 1 2 3q22 33 45 43t52 10h19h231q77 0 115 -52l2 -2l55 -97h68q39 0 66 -27.5t27 -67.5v-428q0 -41 -27.5 -68.5t-65.5 -27.5zM161 564q-17 0 -29.5 -12t-12.5 -28v-428q0 -16 12 -28.5t30 -12.5h703q16 0 27 12.5t11 28.5v428q0 15 -10.5 27.5t-27.5 12.5h-84
q-16 0 -23 13l-63 109q-21 28 -70 28h-250q-18 0 -28.5 -4.5t-22.5 -22.5l-54 -108q-7 -15 -25 -15h-83zM925 413h-248q-5 0 -9 4t-4 9.5t4 9.5t9 4h248q5 0 9 -4t4 -9.5t-4 -9.5t-9 -4zM347 413h-261q-5 0 -9 4t-4 9.5t4 9.5t9 4h261q6 0 10 -4t4 -9.5t-4 -9.5t-10 -4z
M732 220h-68q-6 0 -10 4t-4 10t4 10t10 4h68q6 0 10 -4t4 -10t-4 -10t-10 -4zM787 220h-13q-6 0 -10 4t-4 10t4 10t10 4h13q6 0 10 -4t4 -10t-4 -10t-10 -4zM911 220h-82q-6 0 -10 4t-4 10t4 10t10 4h82q6 0 10 -4t4 -10t-4 -10t-10 -4zM347 220h-261q-5 0 -9 4t-4 10t4 10
t9 4h261q6 0 10 -4t4 -10t-4 -10t-10 -4z" />
    <glyph glyph-name="uniE62A" unicode="&#xe62a;" 
d="M773 -61h-532q-40 0 -66 29t-26 70v699q0 42 26.5 68.5t65.5 26.5h280q12 0 20 -9l320 -317q14 -15 14 -20v-448q0 -42 -31 -70.5t-71 -28.5zM241 776q-17 0 -26.5 -11t-9.5 -28v-699q0 -18 9.5 -31t26.5 -13h532q17 0 31.5 13.5t14.5 30.5v436l-309 302h-269zM842 469
h-252q-34 0 -56 25.5t-22 60.5v251q0 2 -0.5 4.5t-0.5 3.5t1 2.5t2 2.5q7 3 13 -3l326 -324q6 -6 2 -15q-3 -8 -13 -8zM540 773v-218q0 -24 14 -41t36 -17h218zM402 343h-112q-5 0 -9.5 4.5t-4.5 10t4.5 9.5t9.5 4h112q6 0 10 -4t4 -9.5t-4 -10t-10 -4.5zM598 343h-140
q-6 0 -10 4.5t-4 10t4 9.5t10 4h140q5 0 9 -4t4 -9.5t-4 -10t-9 -4.5zM709 343h-56q-5 0 -9.5 4.5t-4.5 10t4.5 9.5t9.5 4h56q6 0 10 -4t4 -9.5t-4 -10t-10 -4.5zM346 274h-56q-5 0 -9.5 4t-4.5 9.5t4.5 9.5t9.5 4h56q6 0 10 -4t4 -9.5t-4 -9.5t-10 -4zM514 274h-112
q-6 0 -10 4t-4 9.5t4 9.5t10 4h112q6 0 10 -4t4 -9.5t-4 -9.5t-10 -4zM709 274h-139q-6 0 -10 4t-4 9.5t4 9.5t10 4h139q6 0 10 -4t4 -9.5t-4 -9.5t-10 -4zM430 190h-140q-5 0 -9.5 4t-4.5 10t4.5 10t9.5 4h140q6 0 10 -4t4 -10t-4 -10t-10 -4zM625 190h-139q-6 0 -10 4
t-4 10t4 10t10 4h139q6 0 10 -4t4 -10t-4 -10t-10 -4zM709 190h-28q-6 0 -10 4t-4 10t4 10t10 4h28q6 0 10 -4t4 -10t-4 -10t-10 -4zM346 120h-56q-5 0 -9.5 4t-4.5 10t4.5 10t9.5 4h56q6 0 10 -4t4 -10t-4 -10t-10 -4zM500 120h-98q-6 0 -10 4t-4 10t4 10t10 4h98
q6 0 10 -4t4 -10t-4 -10t-10 -4z" />
    <glyph glyph-name="uniE62B" unicode="&#xe62b;" 
d="M260.5 496q-67.5 0 -115.5 48t-48 115.5t48 115t115.5 47.5t115.5 -47.5t48 -115t-48 -115.5t-115.5 -48zM260.5 770q-45.5 0 -78 -32.5t-32.5 -78.5t32.5 -78t78 -32t78 32t32.5 78t-32.5 78.5t-78 32.5zM188.5 646q-5.5 0 -9.5 4t-4 9v3q0 4 1 9t5.5 8t9.5 2t8.5 -5.5
t2.5 -9.5q-1 -2 -1 -3v-4q0 -5 -3.5 -9t-9 -4zM200 686q-4 0 -7 2q-11 8 -4 19q26 38 72 38q5 0 9 -4t4 -9.5t-4 -9.5t-9 -4q-32 0 -50 -26q-4 -6 -11 -6zM628.5 496q-67.5 0 -115.5 48t-48 115.5t48 115t115.5 47.5t115.5 -47.5t48 -115t-48 -115.5t-115.5 -48zM628.5 770
q-45.5 0 -78 -32.5t-32.5 -78.5t32.5 -78t78 -32t78 32t32.5 78t-32.5 78.5t-78 32.5zM568 686q-4 0 -7 2q-11 8 -4 19q26 38 71 38q6 0 10 -4t4 -9.5t-4 -9.5t-10 -4q-31 0 -49 -26q-4 -6 -11 -6zM646 -49h-488q-39 0 -66 23.5t-27 59.5v343q0 39 28 69.5t65 30.5h488
q37 0 64 -28.5t27 -66.5v-4l-1 -10q78 41 139 74q20 9 36 9q19 0 33 -13q15 -15 15 -52v-1v-354q0 -24 -9 -36q-12 -17 -36 -17h1q-12 0 -36 7q-2 0 -4 2q-87 46 -140 72l2 -22v1q0 -37 -26.5 -62t-64.5 -25zM158 424q-15 0 -27.5 -15t-12.5 -32v-343q0 -15 11 -22.5
t29 -7.5h488q16 0 27 9t11 24l-4 64q0 11 8 19q7 8 19 8q13 0 190 -93q8 -3 11 -3v355q0 7 -1 11q-3 -1 -8 -3q-90 -49 -129.5 -69t-48.5 -24.5t-14 -4.5q-12 0 -19.5 8.5t-7.5 20.5l4 56q0 17 -11.5 29.5t-26.5 12.5h-488zM157.5 261q-5.5 0 -9.5 4t-4 10v66
q0 20 14.5 38.5t33.5 18.5h111q6 0 9.5 -4t3.5 -9t-3.5 -9t-9.5 -4h-111q-7 0 -14.5 -10.5t-7.5 -20.5v-66q0 -6 -3.5 -10t-9 -4zM369 372h-13q-6 0 -9.5 4t-3.5 9t3.5 9t9.5 4h13q5 0 9 -4t4 -9t-4 -9t-9 -4z" />
    <glyph glyph-name="uniE62C" unicode="&#xe62c;" 
d="M973 36q0 -41 -29 -70t-70 -29h-725q-41 0 -69.5 29t-28.5 70v696q0 41 28.5 70t69.5 29h725q41 0 70 -29t29 -70v-696zM916 732q0 18 -12 30t-30 12h-725q-17 0 -29 -12t-12 -30v-696q0 -18 12 -30t29 -12h725q18 0 30 12t12 30v696zM74 134q-4 0 -8 3q-12 8 -4 19
l223 319q17 25 45 27.5t49 -19.5l184 -183q10 -10 0 -20t-20 0l-184 183q-12 12 -26.5 11t-24.5 -15l-222 -319q-5 -6 -12 -6zM875 138q-6 0 -10 4l-17 16q-10 10 -0.5 20t19.5 1l17 -16q11 -10 1 -20q-4 -5 -10 -5zM307 -58q-5 0 -8 3q-12 8 -3 19l286 385q18 24 46 26.5
t50 -18.5l155 -146q10 -10 0.5 -20t-19.5 -1l-155 147q-13 11 -28.5 10t-25.5 -15l-287 -385q-4 -5 -11 -5zM636 474q-51 0 -86.5 36t-35.5 86.5t35.5 86.5t86.5 36t87 -36t36 -86.5t-36 -86.5t-87 -36zM636 691q-39 0 -66.5 -28t-27.5 -66.5t27.5 -66.5t66.5 -28t66.5 28
t27.5 66.5t-27.5 66.5t-66.5 28z" />
    <glyph glyph-name="uniE62D" unicode="&#xe62d;" 
d="M184 37q-5 0 -9 4q-23 24 -23 56q0 6 4 9.5t9 3.5q6 0 10 -3.5t4 -9.5q0 -22 15 -37q9 -10 0 -19q-4 -4 -10 -4zM715 143q-6 0 -10 4q-22 24 -22 56q0 6 4 10t9 4q6 0 9.5 -4t3.5 -10q0 -22 16 -37q9 -10 -1 -19q-4 -4 -9 -4zM229 16q-4 0 -8 1q-13 5 -8 17q3 12 15 9h5
q5 0 9 -4t4 -9q0 -12 -12 -13q-3 -1 -5 -1zM770 43q-66 0 -112.5 47t-46.5 113t46.5 112.5t112.5 46.5q76 0 163 -20q19 -5 20 -24q1 -7 1.5 -18t-1 -39.5t-6.5 -54.5t-18 -57t-33 -53q-48 -53 -126 -53zM770 309q-44 0 -75 -31t-31 -75t31 -75t75 -31q55 0 86 34
q47 52 46 163q-76 15 -132 15zM927 292q-11 0 -18.5 7t-8.5 18l-2 477q0 11 8 20t19 9t18.5 -9t7.5 -20l3 -475q0 -11 -8 -19t-19 -8zM226 -63q-66 0 -112.5 47t-46.5 112.5t46.5 112.5t112.5 47q75 0 163 -20q19 -5 20 -24q1 -7 1.5 -18t-1 -39.5t-6.5 -54.5t-18 -57
t-33 -53q-48 -53 -126 -53zM226 203q-44 0 -75 -31.5t-31 -75t31 -75t75 -31.5q55 0 86 35q47 52 45 163q-75 15 -131 15zM383 186q-11 0 -18.5 7t-8.5 18l-2 486q0 11 8 19.5t19 8.5t18.5 -8.5t7.5 -19.5l3 -485q0 -11 -8 -18.5t-19 -7.5zM381 674q-10 0 -17 6t-9 15
q-2 11 4 20t17 11l544 104q11 2 20 -4t11 -17t-4 -20t-17 -11l-544 -104h-5zM393 570q-10 0 -17 6t-9 15q-2 11 4 20t17 11l532 102q11 2 20 -4t11 -17t-4 -20t-17 -11l-532 -102h-5z" />
    <glyph glyph-name="uniE62E" unicode="&#xe62e;" 
d="M335 162q-9 0 -13 9q-1 3 -3 11q-1 6 -2 10q-1 5 2 10t8.5 6t10 -2t5.5 -8q2 -5 3 -10t1 -7q6 -12 -7 -18q-2 -1 -5 -1zM491 35h-2q-45 6 -83 30.5t-63 63.5q-7 11 4.5 18.5t18.5 -4.5q45 -70 127 -81q6 -1 9 -5.5t3 -9.5q-2 -12 -14 -12zM512 -62q-121 0 -207 86
t-86 207q0 68 70.5 245.5t120.5 275.5q40 80 101 80t101 -80q52 -101 122.5 -276.5t70.5 -244.5q0 -121 -86 -207t-207 -86zM511 777q-28 0 -53 -50q-49 -98 -116.5 -269t-67.5 -227q0 -98 70 -168t168.5 -70t168.5 70t70 168q0 56 -67 224t-120 272q-25 50 -53 50z" />
    <glyph glyph-name="uniE62F" unicode="&#xe62f;" 
d="M512 -63q-95 0 -162 67t-67 161q0 99 100 189v348q0 53 37.5 91t90.5 38t91 -38t38 -91v-349q98 -58 98 -188q0 -94 -66 -161t-160 -67zM511 777q-31 0 -52.5 -22t-21.5 -53v-362q0 -15 -13 -23q-35 -22 -61 -62.5t-26 -89.5q0 -72 51.5 -123t123.5 -51q71 0 121.5 51
t50.5 123q0 104 -84 148q-14 7 -14 24v365q0 31 -22 53t-53 22zM513 14q-5 0 -9 4t-4 9.5t4 9.5t9 4q38 0 70 22t46 57q5 13 17.5 8t7.5 -17q-17 -44 -55.5 -70.5t-85.5 -26.5zM650 140h-1q-5 1 -9 5t-3 10v10q0 6 4 10t9.5 4t9.5 -4t4 -10v-12q-1 -13 -14 -13zM490 390h-67
q-6 0 -10 4t-4 9.5t4 9.5t10 4h67q6 0 10 -4t4 -9.5t-4 -9.5t-10 -4zM490 444h-67q-6 0 -10 4t-4 9.5t4 9.5t10 4h67q6 0 10 -4t4 -9.5t-4 -9.5t-10 -4zM490 579h-67q-6 0 -10 4t-4 9.5t4 9.5t10 4h67q6 0 10 -4t4 -9.5t-4 -9.5t-10 -4zM490 633h-67q-6 0 -10 4t-4 9.5
t4 9.5t10 4h67q6 0 10 -4t4 -9.5t-4 -9.5t-10 -4zM531 511h-108q-6 0 -10 4t-4 10t4 10t10 4h108q6 0 10 -4t4 -10t-4 -10t-10 -4z" />
    <glyph glyph-name="uniE630" unicode="&#xe630;" 
d="M519.5 104q-116.5 0 -199.5 83t-83 199.5t83 199.5t199.5 83t199.5 -83t83 -199.5t-83 -199.5t-199.5 -83zM519.5 615q-94.5 0 -161.5 -67t-67 -161.5t67 -161.5t161.5 -67t161.5 67t67 161.5t-67 161.5t-161.5 67zM373 471q-3 0 -7 2q-11 7 -4 18q21 35 56.5 55.5
t75.5 20.5q6 0 10 -4t4 -9.5t-4 -9.5t-10 -4q-33 0 -62.5 -17t-46.5 -45q-4 -7 -12 -7zM353.5 404q-5.5 0 -9.5 4t-4 10q0 13 4 30q2 5 6.5 8t9.5 2q13 -3 10 -16q-3 -14 -3 -24q0 -6 -4 -10t-9.5 -4zM530 -63q-11 0 -18.5 8t-7.5 19v80q0 11 7.5 19t18.5 8t19 -8t8 -19v-80
q0 -11 -8 -19t-19 -8zM530 697q-11 0 -18.5 8t-7.5 19v80q0 11 7.5 19t18.5 8t19 -8t8 -19v-80q0 -11 -8 -19t-19 -8zM222 63q-11 0 -19 7.5t-8 19t8 18.5l56 57q8 8 19 8t19 -8t8 -19t-8 -19l-56 -56q-8 -8 -19 -8zM759 600q-11 0 -19 8t-8 19t8 19l57 56q8 8 19 8
t18.5 -7.5t7.5 -19t-7 -18.5l-57 -57q-8 -8 -19 -8zM278 600q-11 0 -19 8l-56 57q-8 7 -8 18.5t8 19t19 7.5t19 -8l56 -56q8 -8 8 -19t-8 -19t-19 -8zM816 63q-11 0 -19 8l-57 56q-8 8 -8 19t8 19t19 8t19 -8l57 -57q7 -7 7 -18.5t-7.5 -19t-18.5 -7.5zM172 351h-80
q-11 0 -19 7.5t-8 18.5t8 19t19 8h80q11 0 19 -8t8 -19t-8 -18.5t-19 -7.5zM932 351h-80q-11 0 -19 7.5t-8 18.5t8 19t19 8h80q11 0 19 -8t8 -19t-8 -18.5t-19 -7.5z" />
    <glyph glyph-name="uniE631" unicode="&#xe631;" 
d="M557 -63q-91 0 -174 35.5t-143 95t-96 142.5t-36 174q0 90 35.5 172.5t94.5 142.5t141.5 95.5t171.5 35.5h1q18 0 24 -13q8 -14 -3 -28q-81 -106 -81 -240q0 -106 52.5 -197t143.5 -143.5t198 -52.5h5q17 0 24.5 -15t-2.5 -29q-65 -83 -158 -129t-198 -46zM497 775
q-142 -22 -238 -132.5t-96 -256.5q0 -107 53 -198t143.5 -143.5t197.5 -52.5q78 0 149.5 29t126.5 83q-110 13 -201 75t-143 160t-52 211q0 121 60 225zM578 30q-135 0 -238 86.5t-126 219.5q-1 5 2.5 10t9 5.5t10 -2.5t5.5 -9q22 -122 117 -202t220 -80q5 0 9 -4t4 -9.5
t-4 -10t-9 -4.5zM223 365q-5 0 -9.5 4.5t-4.5 9.5v20q0 6 4 10t9.5 4t9.5 -4t4 -10q0 -9 1 -19q0 -5 -4 -10t-9 -5h-1zM642.5 585.5q3.5 -9.5 -1 -18.5t-14 -12t-18.5 1.5t-12.5 14t1 18.5t14 12t18.5 -1.5t12.5 -14zM801 702.5q3 -9.5 -1.5 -18.5t-14 -12t-18.5 1.5t-12 14
t1.5 18.5t14 12t18.5 -1.5t12 -14zM748 484.5q3 -9.5 -1.5 -18.5t-14 -12.5t-18.5 1t-12 14t1.5 19t14 12.5t18.5 -1.5t12 -14z" />
    <glyph glyph-name="uniE632" unicode="&#xe632;" 
d="M220 -63q-17 0 -26 13q-11 16 -1 42l87 322q0 1 1 2v1h-1h-52q-31 0 -45 24q-14 23 2 51l216 390q12 21 35.5 34.5t46.5 13.5h315q33 0 44.5 -24t-8.5 -50l-224 -285h96q35 0 44 -25t-18 -47l-480 -447q0 -1 -1 -1q-16 -14 -31 -14zM331 299l-72 -268l415 386h-80
q-32 0 -44 24.5t9 50.5l223 285h-299q-9 0 -19.5 -6.5t-15.5 -14.5l-214 -385h46q31 0 46 -23q15 -21 5 -49zM385 511q-4 0 -7 1q-12 7 -5 18l12 22q6 12 18 5.5t5 -18.5l-12 -22q-4 -6 -11 -6zM422 579q-3 0 -6 1q-12 7 -5 18l56 102q9 16 27 27t36 11h35q6 0 10 -4t4 -9.5
t-4 -9.5t-10 -4h-35q-10 0 -22 -7t-17 -17l-57 -102q-4 -6 -12 -6z" />
    <glyph glyph-name="uniE633" unicode="&#xe633;" 
d="M511.5 10q-118.5 0 -202.5 84t-84 203q0 53 45.5 160.5t126.5 266.5q10 20 14 29q40 78 100 78q59 0 99 -78q4 -8 16 -33q81 -157 126.5 -263.5t45.5 -159.5q0 -119 -84 -203t-202.5 -84zM510.5 777q-26.5 0 -51.5 -48q-4 -9 -15 -29q-165 -327 -165 -403q0 -97 68 -165
t164.5 -68t165 68t68.5 165q0 76 -166 399q-13 25 -17 32q-25 49 -51.5 49zM517 -63q-11 0 -19 8t-8 19v67q0 11 8 18.5t19 7.5t19 -7.5t8 -18.5v-67q0 -11 -8 -19t-19 -8zM516.5 538q-5.5 0 -9 4t-3.5 9v14q0 5 3.5 9t9 4t9.5 -4t4 -9v-14q0 -5 -4 -9t-9.5 -4zM516.5 31
q-5.5 0 -9 4t-3.5 9v467q0 6 3.5 10t9 4t9.5 -4t4 -10v-467q0 -5 -4 -9t-9.5 -4zM512.5 130q-5.5 0 -9.5 4q-10 9 0 19l106 106q9 9 18.5 -0.5t0.5 -18.5l-106 -106q-4 -4 -9.5 -4zM397.5 361q-5.5 0 -9.5 4t-4 9.5t4 9.5q4 3 9.5 3t9.5 -3.5t4 -9.5q0 -5 -4 -9t-9.5 -4z
M511.5 247q-5.5 0 -9.5 4l-87 87q-9 10 0 19t19 0l87 -87q10 -10 0 -19q-4 -4 -9.5 -4zM512.5 427q-5.5 0 -9.5 4q-10 9 0 19l83 83q10 10 19 0.5t0 -19.5l-83 -83q-4 -4 -9.5 -4z" />
    <glyph glyph-name="uniE634" unicode="&#xe634;" 
d="M603 25h-329q-87 0 -148.5 62.5t-61.5 150.5q0 55 26.5 103.5t72.5 77.5q4 45 36 78t77 38q43 96 131 152.5t194 56.5q96 0 178.5 -47.5t130 -130t47.5 -179.5q0 -94 -45.5 -175.5t-124 -130.5t-172.5 -53q-6 -3 -12 -3zM291 484q-31 0 -53.5 -22.5t-22.5 -54.5v-2
q1 -17 -14 -25q-38 -20 -61 -58.5t-23 -83.5q0 -66 46 -113t111 -47h319q6 2 12 2q124 2 212 92t88 215q0 126 -89.5 215.5t-214.5 89.5q-94 0 -171 -52t-112 -140q-7 -17 -25 -16h-2zM837 393q-5 0 -9 4.5t-4 10.5q0 11 -1 21q-1 6 2.5 10.5t9 5t9.5 -3t5 -8.5q1 -12 1 -25
q0 -6 -4 -10.5t-9 -4.5zM812 496q-8 0 -12 7q-25 46 -70.5 73t-98.5 27q-6 0 -9.5 4t-3.5 9.5t3.5 9t9.5 3.5q60 0 111.5 -30.5t80.5 -83.5q7 -11 -5 -18q-3 -1 -6 -1z" />
    <glyph glyph-name="uniE635" unicode="&#xe635;" 
d="M407 -59q-7 0 -13 3q-15 8 -15 25l3 102h-69q-39 0 -64.5 28t-25.5 69v359q0 39 25.5 66.5t64.5 27.5h552q40 0 70 -28t30 -66v-359q0 -40 -30 -68.5t-70 -28.5h-267l-175 -125q-7 -5 -16 -5zM313 566q-16 0 -25.5 -11t-9.5 -28v-359q0 -18 9.5 -30t25.5 -12h97
q12 0 20 -8t8 -20l-2 -75l137 98q7 5 16 5h276q17 0 31 12.5t14 29.5v359q0 16 -14 27.5t-31 11.5h-552zM116 299q-8 0 -16 7q-28 25 -28 68v359q0 40 25.5 67t64.5 27h552q40 0 70 -27.5t30 -66.5v-16q0 -11 -8 -19t-19.5 -8t-19.5 8t-8 19v16q0 16 -14 27.5t-31 11.5h-552
q-16 0 -25.5 -11t-9.5 -28v-359q0 -18 10 -26q8 -8 8 -19.5t-7 -19.5q-9 -10 -22 -10zM493 442h-110q-6 0 -10 4t-4 10t4 10t10 4h110q6 0 10 -4t4 -10t-4 -10t-10 -4zM685 442h-137q-6 0 -10 4t-4 10t4 10t10 4h137q6 0 10 -4t4 -10t-4 -10t-10 -4zM795 442h-55q-5 0 -9 4
t-4 10t4 10t9 4h55q6 0 10 -4t4 -10t-4 -10t-10 -4zM438 374h-55q-6 0 -10 4t-4 9.5t4 9.5t10 4h55q6 0 10 -4t4 -9.5t-4 -9.5t-10 -4zM603 374h-110q-6 0 -10 4t-4 9.5t4 9.5t10 4h110q6 0 10 -4t4 -9.5t-4 -9.5t-10 -4zM795 374h-137q-6 0 -10 4t-4 9.5t4 9.5t10 4h137
q6 0 10 -4t4 -9.5t-4 -9.5t-10 -4zM520 291h-137q-6 0 -10 4t-4 10t4 10t10 4h137q6 0 10 -4t4 -10t-4 -10t-10 -4zM713 291h-138q-5 0 -9 4t-4 10t4 10t9 4h138q5 0 9.5 -4t4.5 -10t-4.5 -10t-9.5 -4zM795 291h-27q-6 0 -10 4t-4 10t4 10t10 4h27q6 0 10 -4t4 -10t-4 -10
t-10 -4zM438 222h-55q-6 0 -10 4.5t-4 10t4 9.5t10 4h55q6 0 10 -4t4 -9.5t-4 -10t-10 -4.5zM589 222h-96q-6 0 -10 4.5t-4 10t4 9.5t10 4h96q6 0 10 -4t4 -9.5t-4 -10t-10 -4.5z" />
    <glyph glyph-name="uniE636" unicode="&#xe636;" 
d="M944 31q0 -39 -27.5 -66.5t-66.5 -27.5h-679q-38 0 -65.5 27.5t-27.5 66.5v598q0 38 27.5 65.5t65.5 27.5h679q39 0 66.5 -27.5t27.5 -65.5v-598zM890 629q0 16 -11.5 27.5t-28.5 11.5h-679q-16 0 -27.5 -11.5t-11.5 -27.5v-598q0 -16 11.5 -28t27.5 -12h679
q17 0 28.5 12t11.5 28v598zM796 32h-85q-6 0 -10 4t-4 9.5t4 9.5t10 4h85q12 0 17.5 6t5.5 26q0 6 4.5 10t10.5 4t10.5 -4t4.5 -10v-5l-1 -1v-1q-3 -52 -52 -52zM833.5 135q-5.5 0 -9.5 4t-4 9.5t4 9.5q10 9 20 0q3 -4 3 -9.5t-3 -9.5q-5 -4 -10.5 -4zM278 343h-14
q-5 0 -9 4t-4 10t4 9.5t9 3.5h14q5 0 9 -3.5t4 -9.5t-4 -10t-9 -4zM373 343h-14q-6 0 -9.5 4t-3.5 10t3.5 9.5t9.5 3.5h14q5 0 9 -3.5t4 -9.5t-4 -10t-9 -4zM467 343h-13q-6 0 -10 4t-4 10t4 9.5t10 3.5h13q6 0 10 -3.5t4 -9.5t-4 -10t-10 -4zM549 343h-14q-6 0 -9.5 4
t-3.5 10t3.5 9.5t9.5 3.5h14q5 0 9 -3.5t4 -9.5t-4 -10t-9 -4zM643 343h-13q-6 0 -10 4t-4 10t4 9.5t10 3.5h13q6 0 10 -3.5t4 -9.5t-4 -10t-10 -4zM738 343h-13q-6 0 -10 4t-4 10t4 9.5t10 3.5h13q6 0 10 -3.5t4 -9.5t-4 -10t-10 -4zM278 262h-14q-5 0 -9 4t-4 9.5t4 9.5
t9 4h14q5 0 9 -4t4 -9.5t-4 -9.5t-9 -4zM373 262h-14q-6 0 -9.5 4t-3.5 9.5t3.5 9.5t9.5 4h14q5 0 9 -4t4 -9.5t-4 -9.5t-9 -4zM467 262h-13q-6 0 -10 4t-4 9.5t4 9.5t10 4h13q6 0 10 -4t4 -9.5t-4 -9.5t-10 -4zM549 262h-14q-6 0 -9.5 4t-3.5 9.5t3.5 9.5t9.5 4h14
q5 0 9 -4t4 -9.5t-4 -9.5t-9 -4zM643 262h-13q-6 0 -10 4t-4 9.5t4 9.5t10 4h13q6 0 10 -4t4 -9.5t-4 -9.5t-10 -4zM738 262h-13q-6 0 -10 4t-4 9.5t4 9.5t10 4h13q6 0 10 -4t4 -9.5t-4 -9.5t-10 -4zM278 100h-14q-5 0 -9 4t-4 9.5t4 9.5t9 4h14q5 0 9 -4t4 -9.5t-4 -9.5
t-9 -4zM373 100h-14q-6 0 -9.5 4t-3.5 9.5t3.5 9.5t9.5 4h14q5 0 9 -4t4 -9.5t-4 -9.5t-9 -4zM467 100h-13q-6 0 -10 4t-4 9.5t4 9.5t10 4h13q6 0 10 -4t4 -9.5t-4 -9.5t-10 -4zM549 100h-14q-6 0 -9.5 4t-3.5 9.5t3.5 9.5t9.5 4h14q5 0 9 -4t4 -9.5t-4 -9.5t-9 -4zM278 181
h-14q-5 0 -9 4t-4 9.5t4 9.5t9 4h14q5 0 9 -4t4 -9.5t-4 -9.5t-9 -4zM373 181h-14q-6 0 -9.5 4t-3.5 9.5t3.5 9.5t9.5 4h14q5 0 9 -4t4 -9.5t-4 -9.5t-9 -4zM467 181h-13q-6 0 -10 4t-4 9.5t4 9.5t10 4h13q6 0 10 -4t4 -9.5t-4 -9.5t-10 -4zM549 181h-14q-6 0 -9.5 4
t-3.5 9.5t3.5 9.5t9.5 4h14q5 0 9 -4t4 -9.5t-4 -9.5t-9 -4zM643 181h-13q-6 0 -10 4t-4 9.5t4 9.5t10 4h13q6 0 10 -4t4 -9.5t-4 -9.5t-10 -4zM738 181h-13q-6 0 -10 4t-4 9.5t4 9.5t10 4h13q6 0 10 -4t4 -9.5t-4 -9.5t-10 -4zM267 574q-11 0 -19 7.5t-8 19.5v203
q0 11 8 19t19 8t19 -8t8 -19v-203q0 -12 -8 -19.5t-19 -7.5zM741 574q-11 0 -19 7.5t-8 19.5v203q0 11 8 19t19 8t19 -8t8 -19v-203q0 -12 -8 -19.5t-19 -7.5zM914 465h-812q-6 0 -10 4t-4 9.5t4 9.5t10 4h812q6 0 10 -4t4 -9.5t-4 -9.5t-10 -4z" />
    <glyph glyph-name="uniE637" unicode="&#xe637;" 
d="M506 -64q-1 0 -4 1q-10 3 -25.5 8.5t-52.5 21t-71.5 34t-75 48t-69.5 61.5t-49 75.5t-20 89.5v381q0 12 6.5 19.5t16.5 7.5q50 0 85 35t36 85q0 11 7 19t18 8h395q11 0 19 -8t8 -19q1 -49 38 -84.5t88 -35.5q11 0 20.5 -8t9.5 -19v-381q0 -41 -20 -81t-49.5 -71.5
t-71 -62t-75.5 -50t-72.5 -38t-53.5 -24.5l-25 -10q-5 -2 -13 -2zM193 632v-357q0 -35 15 -68.5t38.5 -59t56 -50t62 -41t62.5 -31.5t51 -22t34 -12q33 13 71 31.5t83.5 47.5t81.5 59.5t60.5 69.5t24.5 76v357q-61 8 -103 46.5t-51 97.5h-347q-9 -58 -48 -97t-91 -47z
M375 100q-4 0 -6 1q-79 40 -115 106q-7 12 5 18t18 -5q33 -59 104 -95q11 -6 5 -18q-3 -7 -11 -7zM242 256q-10 0 -12 10l-4 14q-1 5 2 9.5t8.5 5.5t10 -2t5.5 -8l3 -12q4 -12 -9 -16q-2 -1 -4 -1zM512.5 -37q-5.5 0 -9.5 4t-4 9v827q0 5 4 9t9.5 4t9.5 -4t4 -9v-827
q0 -5 -4 -9t-9.5 -4zM852 369h-693q-6 0 -10 4t-4 9.5t4 9.5t10 4h693q5 0 9 -4t4 -9.5t-4 -9.5t-9 -4z" />
    <glyph glyph-name="uniE638" unicode="&#xe638;" 
d="M513 -63q-91 0 -173.5 35.5t-142.5 95.5t-95.5 142.5t-35.5 173.5t35.5 173.5t95.5 142.5t142.5 95.5t173.5 35.5t173.5 -35.5t142.5 -95.5t95.5 -142.5t35.5 -173.5t-35.5 -173.5t-95.5 -142.5t-142.5 -95.5t-173.5 -35.5zM513 776q-106 0 -196.5 -52.5t-143 -142.5
t-52.5 -196.5t52.5 -197t143 -143t196.5 -52.5t196.5 52.5t143 143t52.5 197t-52.5 196.5t-143 142.5t-196.5 52.5zM503 740q-11 0 -19 8t-8 19v28q0 11 8 19t19 8t19 -8t8 -19v-28q0 -11 -8 -19t-19 -8zM503 -50q-11 0 -19 8t-8 20v27q0 11 8 19t19 8t19 -8t8 -19v-27
q0 -12 -8 -20t-19 -8zM922 350h-41q-12 0 -20 8t-8 19.5t8 19.5t20 8h41q11 0 19 -8t8 -19.5t-8 -19.5t-19 -8zM132 350h-27q-12 0 -20 8t-8 19.5t8 19.5t20 8h27q11 0 19 -8t8 -19.5t-8 -19.5t-19 -8zM381 237q-5 0 -9 4q-6 6 -3 14l69 198q2 6 8 8l194 70q8 3 14 -3t3 -14
l-19 -56q-4 -13 -17 -8t-9 17l10 29l-160 -58l-58 -165l161 57l7 23q5 12 17.5 7.5t8.5 -16.5l-10 -29q-2 -6 -8 -8l-194 -69q-2 -1 -5 -1zM601 379q-3 0 -5 1q-13 5 -8 17l11 32q4 13 17 8.5t9 -17.5l-11 -32q-4 -9 -13 -9z" />
    <glyph glyph-name="uniE639" unicode="&#xe639;" 
d="M515.5 -3q-47.5 0 -106.5 13.5t-118.5 39.5t-109.5 60t-81 80t-31 94t31 94t81 80t109.5 60t118.5 39.5t106.5 13.5t106.5 -13.5t119 -39.5t109.5 -60t80.5 -80t31 -94t-31 -94t-80.5 -80t-109.5 -60t-119 -39.5t-106.5 -13.5zM515.5 517q-55.5 0 -124 -19t-128 -50
t-100.5 -75.5t-41 -88.5t41 -88.5t100.5 -75.5t128 -50t124 -19t124 19t128.5 50t100.5 75.5t40.5 88.5t-40.5 88.5t-100.5 75.5t-128.5 50t-124 19zM516 142q-58 0 -99 41t-41 99t41 99t99 41t99 -41t41 -99t-41 -99t-99 -41zM516 395q-47 0 -80.5 -33t-33.5 -80
t33.5 -80.5t80.5 -33.5t80 33.5t33 80.5t-33 80t-80 33zM463 317q-5 0 -9 3q-10 9 0 19l8 8q10 8 18.5 -2t-1.5 -19q-3 -2 -6 -5q-4 -4 -10 -4zM516 197q-35 0 -60 25t-25 60q0 5 4 9t9.5 4t9.5 -4t4 -9q0 -24 17 -41t41 -17q5 0 9 -4t4 -9.5t-4 -9.5t-9 -4zM514 604
q-11 0 -19 8t-8 19v80q0 11 8 18.5t19 7.5t19 -7.5t8 -18.5v-80q0 -11 -8 -19t-19 -8zM360 595q-16 0 -23 15l-25 49q-5 10 -1.5 20.5t13.5 15t20.5 1.5t15.5 -13l24 -49q5 -10 1.5 -20.5t-13.5 -15.5q-5 -3 -12 -3zM205 533q-12 0 -20 9l-35 38q-7 9 -6.5 20t9 18.5
t19.5 6.5t18 -9l35 -38q7 -9 6.5 -20t-8.5 -18t-18 -7zM657 595q-7 0 -12 3q-10 5 -13.5 15.5t1.5 20.5l25 49q5 10 15.5 13t20 -1.5t13 -15t-1.5 -20.5l-24 -49q-8 -15 -24 -15zM812 533q-10 0 -17 7q-9 7 -9.5 18t7.5 20l34 38q8 8 19 9t19 -6.5t8.5 -18.5t-6.5 -20
l-35 -38q-8 -9 -20 -9z" />
    <glyph glyph-name="uniE63A" unicode="&#xe63a;" 
d="M323 688q-10 0 -13 9q-5 14 9 18q7 2 15 4q13 3 17 -10q1 -6 -2 -10.5t-9 -6.5q-6 -1 -13 -3q-2 -1 -4 -1zM187 501q-6 0 -10 4t-4 10q0 55 26.5 102t72.5 76q12 8 19 -4t-4 -19q-41 -25 -63.5 -66t-22.5 -89q0 -6 -4 -10t-10 -4zM819 -61q-20 0 -26 18l-17 50l-36 2
q-10 1 -18 8l-52 53q-14 13 -6 31l8 19l-4 3l-11 -8q-8 -6 -18 -5t-17 8l-112 111q-61 -27 -129 -27q-130 0 -222.5 92.5t-92.5 222.5t92.5 222.5t223 92.5t223 -92.5t92.5 -222.5q0 -64 -25 -122l266 -267q7 -7 8 -17l12 -117q1 -10 -5 -18.5t-16 -10.5l-112 -26h-6z
M754 64l44 -3q18 -1 24 -18l15 -44l64 14l-9 83l-273 273q-14 14 -5 32q27 55 27 116q0 107 -76 183.5t-183.5 76.5t-183.5 -76.5t-76 -184t76 -183.5t183 -76q65 0 122 30q18 10 32 -5l109 -108l10 6q17 13 34 -1l35 -31q16 -13 8 -32l-9 -20z" />
    <glyph glyph-name="uniE63B" unicode="&#xe63b;" 
d="M511 -63q-112 0 -207 55.5t-150 150.5t-55 206.5t55 206.5t150 150.5t207 55.5t206.5 -55.5t150 -150.5t55.5 -206.5t-55.5 -206.5t-150 -150.5t-206.5 -55.5zM511 707q-97 0 -179.5 -48t-130.5 -130t-48 -179.5t48 -179.5t130.5 -130t179.5 -48t179.5 48t130.5 130
t48 179.5t-48 179.5t-130.5 130t-179.5 48zM364 77q-3 0 -6 2q-73 41 -115.5 114t-42.5 156q0 6 4 10t9.5 4t9.5 -4t4 -10q0 -76 38.5 -142.5t105.5 -104.5q12 -6 5 -18q-4 -7 -12 -7zM442 38q-2 0 -4 1q-8 2 -17 5q-13 4 -8.5 17t17.5 9q7 -3 15 -5q6 -1 8.5 -6t1.5 -10
q-3 -11 -13 -11zM881 611q-11 0 -19 8l-71 70q-8 8 -8 19.5t8 19.5t19.5 8t19.5 -8l70 -71q8 -8 8 -19t-8 -19t-19 -8zM590 241q-11 0 -19 8l-80 74q-9 9 -9 20v229q0 11 8 19t19 8t19 -8t8 -19v-217l71 -67q9 -8 9.5 -19t-7.5 -19q-8 -9 -19 -9zM509 722q-11 0 -19 8t-8 19
v54q0 12 8 20t19 8t19 -8t8 -20v-54q0 -11 -8 -19t-19 -8z" />
    <glyph glyph-name="uniE63C" unicode="&#xe63c;" 
d="M506.5 -66q-110.5 0 -204 54.5t-148 148.5t-54.5 204.5t54.5 204t148 148t204 54.5t204.5 -54.5t148.5 -148t54.5 -204t-54.5 -204.5t-148.5 -148.5t-204.5 -54.5zM506.5 694q-95.5 0 -176.5 -47.5t-128.5 -128.5t-47.5 -176.5t47.5 -177t128.5 -128.5t176.5 -47t177 47
t128.5 128.5t47 177t-47 176.5t-128.5 128.5t-177 47.5zM362 72q-3 0 -6 2q-73 41 -114.5 112.5t-41.5 154.5q0 6 4 10t9.5 4t9.5 -4t4 -10q0 -75 38 -140.5t104 -102.5q12 -7 5 -19q-4 -7 -12 -7zM480 35h-1l-18 2q-5 1 -8.5 5.5t-2.5 10t5.5 9t9.5 2.5l16 -2q6 0 9.5 -4.5
t3.5 -9.5q-1 -13 -14 -13zM173 525q-8 0 -15 4q-34 22 -53 57t-19 76q0 65 46 111t111 46q47 0 86.5 -26.5t57.5 -69.5q5 -11 0.5 -21.5t-14.5 -14.5t-20.5 0t-15.5 14q-12 29 -37.5 46t-56.5 17q-43 0 -73 -30t-30 -72q0 -57 47 -87q10 -6 12.5 -17t-3.5 -21
q-8 -12 -23 -12zM851 525q-15 0 -23 12q-6 10 -3.5 21t12.5 17q47 30 47 87q0 42 -30 72t-73 30q-31 0 -56.5 -17t-37.5 -46q-5 -10 -15.5 -14t-20.5 0t-14.5 14.5t0.5 21.5q18 43 57.5 69.5t86.5 26.5q65 0 111 -46t46 -111q0 -41 -19 -76t-53 -57q-7 -4 -15 -4zM219 -75
q-9 0 -17 6q-8 7 -9.5 18t4.5 20l60 78q7 9 18 10.5t20 -5t10.5 -18t-4.5 -20.5l-60 -78q-8 -11 -22 -11zM786 -75q-14 0 -22 11l-60 78q-7 9 -5.5 20.5t10.5 18t20 5t18 -10.5l60 -78q7 -9 5.5 -20t-10.5 -18q-7 -6 -16 -6zM584 229q-11 0 -19 8l-74 78q-4 4 -4 20v215
q0 12 8 20t19.5 8t19.5 -8t8 -20v-204l66 -71q8 -8 7 -19t-9 -19t-22 -8z" />
    <glyph glyph-name="uniE63D" unicode="&#xe63d;" 
d="M675 296q-16 0 -20 3l-227 226q-8 8 -8 19t8 19l238 237q32 31 78 31q43 0 73 -29l114 -114q30 -30 31 -76q1 -48 -29 -78l-239 -235q-4 -3 -19 -3zM487 542l188 -189l219 220q14 13 13 37q-1 25 -15 39l-114 114q-13 13 -34 13q-23 0 -39 -15zM591 564q-6 0 -10 4
q-10 10 0 19l6 5q9 10 19 0.5t0 -19.5l-5 -5q-4 -4 -10 -4zM623.5 596q-5.5 0 -9.5 4q-10 10 0 20l89 89q16 16 39 16.5t38 -14.5l58 -59q10 -10 0.5 -19.5t-19.5 0.5l-58 58q-8 7 -19.5 6.5t-18.5 -7.5l-90 -90q-4 -4 -9.5 -4zM586 -62q-12 0 -20 8q-30 30 -111 112
q-274 277 -385 384q-8 8 -8 19.5t8 19.5q79 80 189 103t215 -17q10 -4 15 -14.5t0.5 -21t-14.5 -15t-21 -0.5q-83 31 -170 16.5t-155 -71.5q108 -106 365 -364q64 -64 91 -92q55 65 70.5 147.5t-11.5 164.5q-3 11 2 21t15.5 13.5t21 -1.5t13.5 -16q35 -102 10.5 -206.5
t-101.5 -181.5q-8 -8 -19 -8zM100 -45q-12 0 -20 8t-8 19.5t9 19.5l236 233q8 8 19.5 8t19.5 -8.5t8 -19.5t-9 -19l-236 -233q-8 -8 -19 -8z" />
    <glyph glyph-name="uniE63E" unicode="&#xe63e;" 
d="M284.5 -61q-67.5 0 -115.5 48l-56 56q-48 48 -48 115.5t48 114.5l511 511q48 48 115.5 48t115.5 -48l56 -56q48 -48 48 -115.5t-48 -114.5l-511 -511q-48 -48 -115.5 -48zM739.5 779q-45.5 0 -78.5 -32l-511 -511q-32 -32 -32 -78t32 -78l57 -56q32 -32 77.5 -32t78.5 32
l511 511q32 32 32 77.5t-32 78.5l-57 56q-32 32 -77.5 32zM696.5 403q-5.5 0 -9.5 4l-142 143q-9 10 0.5 19t18.5 0l142 -144q9 -9 0 -18q-4 -4 -9.5 -4zM471.5 178q-5.5 0 -8.5 4l-142 144q-10 9 -0.5 18.5t18.5 0.5l142 -144q10 -9 0 -19q-4 -4 -9.5 -4zM526 285
q0 -7 -5 -12t-12 -5t-12 5t-5 12t5 12t12 5t12 -5t5 -12zM619 390.5q0 -7.5 -5 -12.5t-12.5 -5t-12.5 5t-5 12.5t5 12.5t12.5 5t12.5 -5t5 -12.5zM434 377.5q0 -7.5 -5 -12.5t-12 -5t-12.5 5t-5.5 12.5t5.5 12.5t12.5 5t12 -5t5 -12.5zM526 483q0 -7 -5 -12t-12 -5t-12 5
t-5 12t5 12t12 5t12 -5t5 -12z" />
    <glyph glyph-name="uniE63F" unicode="&#xe63f;" 
d="M661 25q0 -32 -23 -55t-56 -23h-144q-32 0 -55.5 23t-23.5 55v132q0 32 23.5 55t55.5 23h144q33 0 56 -23t23 -55v-132zM609 157q0 11 -8 18.5t-19 7.5h-144q-11 0 -18.5 -7.5t-7.5 -18.5v-132q0 -10 7.5 -18t18.5 -8h144q11 0 19 8t8 18v132zM528 -79h-38
q-18 0 -28.5 15.5t-10.5 32.5v4q0 11 7.5 18.5t18.5 7.5t18 -7.5t7 -18.5h14q0 11 8 18.5t18.5 7.5t18.5 -7.5t8 -18.5v-4q0 -17 -11.5 -32.5t-29.5 -15.5zM418 192q-71 52 -119 162t-48 199q0 108 76.5 184.5t184.5 76.5t184.5 -76.5t76.5 -184.5q0 -86 -46.5 -194
t-114.5 -162l-33 41q59 46 100.5 142.5t41.5 172.5q0 86 -61.5 147.5t-147.5 61.5t-147.5 -61.5t-61.5 -147.5q0 -77 43.5 -176t102.5 -143zM400 77q-9 0 -12 8q-5 12 7 17l218 95q12 6 17.5 -6t-6.5 -18l-219 -95q-2 -1 -5 -1zM400 -15q-9 0 -12 8q-5 12 7 18l218 95
q12 5 17.5 -7t-6.5 -17l-219 -95q-2 -2 -5 -2zM515.5 537q-5.5 0 -9.5 4t-4 9t4 9t9.5 4t9.5 -4t4 -9t-4 -9t-9.5 -4zM516.5 419q-5.5 0 -9 4t-3.5 9v66q0 5 3.5 9t9 4t9.5 -4t4 -9v-66q0 -5 -4 -9t-9.5 -4zM461.5 418q-5.5 0 -9.5 4l-35 36q-10 9 -0.5 18.5t18.5 -0.5
l36 -35q9 -10 0 -19q-4 -4 -9.5 -4zM571.5 418q-5.5 0 -9.5 4q-9 9 0 19l36 35q9 10 18.5 0.5t0.5 -18.5l-36 -36q-4 -4 -9.5 -4z" />
    <glyph glyph-name="uniE640" unicode="&#xe640;" 
d="M749 -94h-476q-39 0 -66.5 27.5t-27.5 66.5v2l28 502q0 38 27.5 65.5t65.5 27.5h422q38 0 65.5 -27.5t28.5 -65.5l27 -502v-2q0 -39 -27.5 -66.5t-66.5 -27.5zM234 -1q0 -16 11.5 -27.5t27.5 -11.5h476q16 0 27.5 11.5t12.5 27.5l-27 502v2q0 16 -12 28t-28 12h-422
q-16 0 -27.5 -12t-11.5 -28v-2zM314 258q-6 0 -10 5t-3 11v11q1 6 5 10t9.5 3.5t9.5 -4.5t3 -10v-11q0 -6 -4 -10.5t-10 -4.5zM301 15q-6 0 -10 4t-3 10l10 203q1 6 5 10t9.5 3.5t9.5 -4.5t4 -10l-11 -204q0 -5 -4 -8.5t-10 -3.5zM631.5 543q-11.5 0 -19.5 7.5t-8 19.5v147
q0 14 -11.5 21.5t-30.5 7.5h-97q-37 0 -37 -29v-147q0 -12 -8 -19.5t-19 -7.5t-19 7.5t-8 19.5v147q0 37 24.5 60t66.5 23h97q41 0 68.5 -23t27.5 -60v-147q0 -12 -7.5 -19.5t-19 -7.5z" />
    <glyph glyph-name="uniE641" unicode="&#xe641;" 
d="M456.5 -62q-34.5 0 -81.5 46l-262 263q-47 47 -47 81t47 81l414 414q9 9 22 8l351 -35h3q9 -2 15 -9t7 -17l34 -350q2 -13 -8 -22l-414 -414q-46 -46 -80.5 -46zM556 776l-405 -405q-30 -31 -30 -43t30 -43l263 -262q30 -31 42.5 -31t42.5 31l405 405l-31 316zM232.5 284
q-5.5 0 -9.5 4q-18 18 -22 32.5t2.5 27t23.5 28.5l123 124q10 10 19.5 0t-0.5 -19l-123 -124q-19 -19 -19.5 -26t15.5 -23q10 -10 0 -20q-4 -4 -9.5 -4zM387.5 504q-5.5 0 -9.5 4q-10 10 0 20l11 11q9 9 19 -0.5t0 -19.5l-11 -11q-4 -4 -9.5 -4zM711.5 473q-46.5 0 -80 33.5
t-33.5 80t33.5 79.5t80 33t79.5 -33t33 -79.5t-33 -80t-79.5 -33.5zM711 644q-24 0 -41 -17t-17 -41t17 -41t41 -17t41 17t17 41t-17 41t-41 17z" />
    <glyph glyph-name="uniE642" unicode="&#xe642;" 
d="M511 140q-70 0 -119.5 50t-49.5 120v351q0 70 49.5 120t119.5 50t119.5 -50t49.5 -120v-351q0 -70 -49.5 -120t-119.5 -50zM511.5 776q-47.5 0 -81.5 -33.5t-34 -81.5v-351q0 -48 34 -81.5t81.5 -33.5t81 33.5t33.5 81.5v351q0 48 -33.5 81.5t-81 33.5zM436.5 546
q-5.5 0 -9.5 4t-4 10v115q0 28 17.5 44.5t48.5 16.5h10q6 0 10 -4t4 -9.5t-4 -9.5t-10 -4h-10q-39 0 -39 -34v-115q0 -6 -4 -10t-9.5 -4zM436.5 492q-5.5 0 -9.5 4t-4 10v13q0 6 4 10t9.5 4t9.5 -4t4 -10v-13q0 -6 -4 -10t-9.5 -4zM512 32h-3q-119 0 -204 87.5t-85 208.5v15
q0 12 8 19.5t19 7.5t19 -7.5t8 -19.5v-15q0 -97 70 -169.5t165 -72.5h3q95 0 165.5 72t70.5 170v15q0 12 8 19.5t19 7.5t19 -7.5t8 -19.5v-15q0 -122 -85.5 -209t-204.5 -87zM621 -63h-230q-11 0 -19 8t-8 19.5t8 19.5t19 8h230q11 0 19 -8t8 -19.5t-8 -19.5t-19 -8z
M504.5 -35q-11.5 0 -19.5 7.5t-8 19.5v67q0 11 8 19t19.5 8t19 -8t7.5 -19v-67q0 -12 -7.5 -19.5t-19 -7.5z" />
    <glyph glyph-name="uniE643" unicode="&#xe643;" 
d="M958 50q0 -40 -28 -68t-67 -28h-703q-40 0 -68 28t-28 68v510q0 40 28 67.5t68 27.5h703q39 0 67 -27.5t28 -67.5v-510zM903 560q0 17 -12 28.5t-28 11.5h-703q-17 0 -29 -11.5t-12 -28.5v-510q0 -17 12 -29t29 -12h703q16 0 28 12t12 29v510zM628 600q-11 0 -19.5 8.5
t-8.5 19.5v121q0 16 -15.5 23t-34.5 7h-98q-5 0 -10 -1t-12.5 -8.5t-7.5 -20.5v-121q0 -11 -8 -19.5t-19.5 -8.5t-19.5 8.5t-8 19.5v121q0 38 22 61.5t63 23.5h117q40 0 63 -23.5t23 -61.5v-121q0 -11 -8 -19.5t-19 -8.5zM424 298h-179q-6 0 -10 4t-4 9.5t4 10t10 4.5h179
q5 0 9 -4.5t4 -10t-4 -9.5t-9 -4zM162 298h-68q-6 0 -10 4t-4 9.5t4 10t10 4.5h68q6 0 10 -4.5t4 -10t-4 -9.5t-10 -4zM932 298h-344q-5 0 -9 4t-4 9.5t4 10t9 4.5h344q6 0 10 -4.5t4 -10t-4 -9.5t-10 -4zM600 272q0 -24 -16 -40t-40 -16h-66q-23 0 -39.5 16t-16.5 40v66
q0 23 16.5 39.5t39.5 16.5h66q24 0 40 -16.5t16 -39.5v-66zM573 338q0 12 -8.5 20.5t-20.5 8.5h-66q-12 0 -20.5 -8.5t-8.5 -20.5v-66q0 -12 8.5 -20.5t20.5 -8.5h66q12 0 20.5 8.5t8.5 20.5v66z" />
    <glyph glyph-name="uniE644" unicode="&#xe644;" 
d="M842 -99q-23 0 -70 14l-5 2q-336 178 -383 195h-121q-64 0 -109 39.5t-45 96.5v244q0 60 47 107t107 47h120q48 22 384 205l1 1q37 18 66 18q31 0 52 -21q26 -26 25 -89l-1 -4v-767q0 -43 -15 -63q-18 -25 -53 -25zM792 -29q36 -11 50 -11q5 0 6 1v1q1 0 1 0.5t0.5 2
t0.5 3.5l2 6v6v9v772q1 37 -8 46q-3 4 -10 4q-15 0 -39 -12q-185 -100 -276.5 -148.5t-107.5 -56t-23 -7.5h-125q-35 0 -65 -29.5t-30 -65.5v-244q0 -34 29 -55t66 -21h125q24 0 404 -201zM526 552q-6 0 -10.5 4.5t-4.5 10.5q0 12 11 15q19 7 196 101q46 22 68 8
q20 -12 20 -51v-53q0 -6 -4.5 -10.5t-10.5 -4.5t-10.5 4.5t-4.5 10.5v53q0 23 -5 26q-9 6 -40 -9q-196 -105 -205 -105zM791 498q-6 0 -10.5 4.5t-4.5 10.5v15q0 6 4.5 10t10.5 4t10.5 -4t4.5 -10v-15q0 -6 -4.5 -10.5t-10.5 -4.5zM391 142q-6 0 -10.5 4.5t-4.5 10.5v445
q0 6 4.5 10.5t10.5 4.5t10.5 -4.5t4.5 -10.5v-445q0 -6 -4.5 -10.5t-10.5 -4.5z" />
    <glyph glyph-name="uniE645" unicode="&#xe645;" 
d="M511 -61q-91 0 -173.5 35.5t-142.5 95.5t-95.5 142.5t-35.5 173.5q0 89 34 170.5t97 145t145 97t171 33.5q137 0 251 -77q92 -62 143.5 -160t51.5 -209q0 -17 -1 -31q-7 -115 -68.5 -210.5t-161.5 -150.5t-215 -55zM511 777q-78 0 -149.5 -29.5t-127 -85t-85 -127
t-29.5 -149.5q0 -106 52.5 -196t142.5 -142.5t196 -52.5q101 0 188 48t141 132t61 184q1 13 1 27q0 97 -45.5 183t-126.5 140q-99 68 -219 68zM177 346q-13 0 -14 13t-1 27q0 5 4 9.5t10 4.5t10 -4.5t4 -9.5q0 -13 1 -25q0 -6 -3.5 -10.5t-9.5 -4.5h-1zM301 122q-4 0 -8 3
q-84 62 -116 162q-4 13 9 17.5t18 -9.5q29 -91 106 -148q11 -8 3 -19q-5 -6 -12 -6zM511 372q-6 0 -10 4l-294 294q-10 10 0 19.5t20 -0.5l284 -283l277 294q10 10 20 0t1 -20l-288 -304q-4 -4 -10 -4zM511 372q-6 0 -10 4t-4 9.5t4 9.5t9 5l404 11q5 0 9.5 -4t4.5 -9.5
t-4 -9.5t-9 -5z" />
    <glyph glyph-name="uniE646" unicode="&#xe646;" 
d="M533 -65h-53q-42 0 -66.5 7t-37 25.5t-16.5 41t-4 62.5v11q0 11 8 19t19 8t19 -8t8 -19v-11v-33q0 -10 2.5 -22.5t5.5 -15.5t12.5 -7t19.5 -4.5t30 -0.5h53q57 0 74 14.5t17 68.5v11q0 11 7.5 19t18.5 8t19 -8t8 -19v-11q0 -77 -32 -106.5t-112 -29.5zM945 166
q0 -46 -32.5 -78.5t-78.5 -32.5h-648q-46 0 -78.5 32.5t-32.5 78.5v6q0 46 32.5 78.5t78.5 32.5h648q46 0 78.5 -32.5t32.5 -78.5v-6zM891 172q0 24 -16.5 40.5t-40.5 16.5h-648q-24 0 -40.5 -16.5t-16.5 -40.5v-6q0 -24 16.5 -40.5t40.5 -16.5h648q24 0 40.5 16.5
t16.5 40.5v6zM824 229q-11 0 -18.5 8t-7.5 19v248q0 112 -82 193t-195 81h-19q-112 0 -189 -80.5t-77 -193.5v-248q0 -11 -8 -19t-19 -8t-19 8t-8 19v248q0 89 42.5 164t116 119t161.5 44h19q88 0 164 -43.5t121 -119.5t45 -164v-248q0 -11 -8 -19t-19 -8zM738.5 457
q-5.5 0 -9 4t-3.5 9q0 71 -39 130.5t-104 87.5q-12 6 -7 18t18 7q72 -32 115 -98t43 -145q0 -5 -4 -9t-9.5 -4zM512 707h-2q-11 1 -22 1q-6 0 -10 4t-4 9.5t4 9.5t10 4q12 0 25 -1q5 -1 8.5 -5t3.5 -10q-1 -12 -13 -12z" />
    <glyph glyph-name="uniE647" unicode="&#xe647;" 
d="M958 145q0 -40 -28 -68t-67 -28h-703q-40 0 -68 28t-28 68v483q0 39 28 67t68 28h703q39 0 67 -28t28 -67v-483zM903 628q0 16 -12 28t-28 12h-703q-17 0 -29 -12t-12 -28v-483q0 -17 12 -29t29 -12h703q16 0 28 12t12 29v483zM939 558h-839q-5 0 -9 4t-4 9.5t4 9.5t9 4
h839q6 0 10 -4t4 -9.5t-4 -9.5t-10 -4zM939 407h-839q-5 0 -9 4t-4 9.5t4 9.5t9 4h839q6 0 10 -4t4 -9.5t-4 -9.5t-10 -4zM210 200h-55q-5 0 -9 4.5t-4 10t4 9.5t9 4h55q6 0 10 -4t4 -9.5t-4 -10t-10 -4.5zM362 200h-97q-5 0 -9 4.5t-4 10t4 9.5t9 4h97q5 0 9 -4t4 -9.5
t-4 -10t-9 -4.5zM444 200h-27q-6 0 -10 4.5t-4 10t4 9.5t10 4h27q6 0 10 -4t4 -9.5t-4 -10t-10 -4.5z" />
    <glyph glyph-name="uniE648" unicode="&#xe648;" 
d="M715 -30h-562q-38 0 -63 27t-25 66v469q0 38 25 64.5t63 26.5h562q38 0 67.5 -27t29.5 -64v-122q0 -11 -8 -19t-19 -8t-18.5 8t-7.5 19v122q0 16 -13.5 27t-30.5 11h-562q-16 0 -25 -11t-9 -27v-469q0 -17 9 -28.5t25 -11.5h562q16 0 30 12t14 28v120q0 11 7.5 19t18.5 8
t19 -8t8 -19v-120q0 -38 -29.5 -65.5t-67.5 -27.5zM235 64q-32 0 -54 23t-22 56v227q0 5 3.5 9t9 4t9.5 -4t4 -9v-227q0 -22 14.5 -37.5t35.5 -15.5q6 0 10 -3.5t4 -9t-4 -9.5t-10 -4zM300 63h-13q-6 0 -9.5 4t-3.5 9.5t3.5 9.5t9.5 4h13q6 0 10 -4t4 -9.5t-4 -9.5t-10 -4z
M959 262q0 -38 -27 -65t-66 -27h-188q-39 0 -66 27t-27 65v56q0 38 27 65t66 27h188q39 0 66 -27t27 -65v-56zM905 318q0 16 -11.5 27.5t-27.5 11.5h-188q-16 0 -27.5 -11.5t-11.5 -27.5v-56q0 -16 11.5 -27.5t27.5 -11.5h188q16 0 27.5 11.5t11.5 27.5v56zM731 291
q0 -11 -7.5 -18.5t-18 -7.5t-18 7.5t-7.5 18.5t7.5 18.5t18 7.5t18 -7.5t7.5 -18.5zM650 576q-11 0 -18.5 8t-7.5 19q0 59 -42 101t-101.5 42t-101.5 -42t-42 -101q0 -11 -8 -19t-19 -8t-18.5 8t-7.5 19q0 81 57.5 138.5t139 57.5t139 -57.5t57.5 -138.5q0 -11 -8 -19
t-19 -8z" />
    <glyph glyph-name="uniE649" unicode="&#xe649;" 
d="M510.5 -62q-90.5 0 -173.5 35.5t-143 95.5t-95.5 142.5t-35.5 173.5t35.5 174t95.5 143t143 95.5t173.5 35.5t173.5 -35.5t143 -95.5t95.5 -143t35.5 -174t-35.5 -173.5t-95.5 -142.5t-143 -95.5t-173.5 -35.5zM510.5 777q-106.5 0 -197 -52.5t-143 -142.5t-52.5 -196.5
t52.5 -197t143 -143t197 -52.5t196.5 52.5t142.5 143t52.5 197t-52.5 196.5t-142.5 142.5t-196.5 52.5zM510.5 281q-43.5 0 -74 30.5t-30.5 73.5t30.5 74t74 31t74 -31t30.5 -74t-30.5 -73.5t-74 -30.5zM510.5 434q-20.5 0 -34.5 -14t-14 -34.5t14 -34.5t34.5 -14t34.5 14
t14 34.5t-14 34.5t-34.5 14zM187 354q-6 0 -10 4t-4 10q-1 8 -1 17q0 5 4 9.5t10 4.5t10 -4t4 -10v-16q1 -6 -3 -10.5t-10 -4.5zM351 89q-4 0 -7 2q-67 38 -110.5 100t-56.5 137q-1 5 2.5 10t9 6t10.5 -2.5t6 -9.5q11 -69 51 -125.5t102 -91.5q12 -7 5 -19q-4 -7 -12 -7z
M330.5 203q-5.5 0 -9.5 4q-64 65 -64 156q0 6 4 10t10 4t10 -4t4 -10q0 -80 56 -137q9 -10 0 -19q-5 -4 -10.5 -4zM377 167q-4 0 -7 2q-7 4 -13 8q-12 8 -4 19.5t19 3.5q5 -3 12 -7q12 -7 5 -19q-4 -7 -12 -7zM396 248q-4 0 -7 2q-26 15 -41.5 41t-15.5 56q0 6 4 10t10 4
t10 -4t4 -10q0 -22 11.5 -42t30.5 -31q12 -7 6 -19q-4 -7 -12 -7zM827 348h-2q-5 1 -9 5.5t-3 10.5q10 83 -23.5 160t-100.5 127q-12 8 -3.5 19t19.5 3q73 -54 109.5 -138t26.5 -175q-2 -12 -14 -12zM748 373h-1q-6 1 -9.5 5.5t-2.5 10.5q6 52 -15 100.5t-63 79.5
q-12 8 -3.5 19t19.5 3q48 -35 72 -90.5t17 -114.5q-1 -13 -14 -13zM672 406h-1q-6 1 -9.5 5.5t-3.5 10.5q3 22 -6 43t-27 34q-11 8 -3 19.5t19 3.5q24 -18 36.5 -46t8.5 -58q-1 -12 -14 -12z" />
    <glyph glyph-name="uniE64A" unicode="&#xe64a;" 
d="M511 -43q-32 0 -53 28l-375 499q-18 25 -19 59t16 60l108 155q15 23 45.5 38t59.5 15h436q30 0 60 -15t46 -38l107 -156q17 -26 16.5 -59.5t-19.5 -58.5l-374 -499q-22 -28 -54 -28zM293 758q-16 0 -34.5 -9t-26.5 -21l-108 -156q-7 -11 -6.5 -28t8.5 -27l374 -500
q11 -14 22 0l374 499q9 11 9 27.5t-7 28.5l-108 156q-8 12 -26.5 21t-34.5 9h-436zM936 530h-816q-6 0 -10 4t-4 9.5t4 9.5t10 4h816q5 0 9 -4t4 -9.5t-4 -9.5t-9 -4zM490 535q-5 0 -9 4l-247 226q-10 9 -1 18.5t19 0.5l247 -225q10 -9 1 -19q-4 -5 -10 -5zM524 535
q-6 0 -10 5q-9 10 1 19l131 120q10 9 19 -1t-1 -19l-131 -120q-4 -4 -9 -4zM689 687q-5 0 -9 4q-9 10 0 19l10 9q10 9 19 -1t-1 -19l-9 -9q-4 -3 -10 -3zM731 725q-6 0 -10 4q-9 10 1 19l40 36q10 9 19 -0.5t-1 -18.5l-40 -37q-4 -3 -9 -3zM316 490q-9 0 -12 9l-17 40
q-4 12 8.5 17t16.5 -7l16 -41q5 -12 -7 -17q-2 -1 -5 -1zM334 445q-9 0 -13 8l-4 12q-5 13 7.5 18t16.5 -8l5 -12q5 -12 -7 -17q-3 -1 -5 -1zM511 -9q-9 0 -12 9l-160 407q-5 13 7.5 17.5t17.5 -7.5l160 -407q4 -13 -8 -18q-2 -1 -5 -1zM511 -9q-2 0 -5 1q-12 5 -7 18
l206 533q5 12 17.5 7.5t7.5 -17.5l-206 -533q-4 -9 -13 -9z" />
    <glyph glyph-name="uniE64B" unicode="&#xe64b;" 
d="M512.5 -24q-107.5 0 -198.5 53t-144 144t-53 198.5t53 198.5t144 144t198.5 53t198.5 -53t144 -144t53 -198.5t-53 -198.5t-144 -144t-198.5 -53zM512.5 714q-92.5 0 -171.5 -46t-125 -125t-46 -171.5t46 -171.5t125 -125t171.5 -46t171.5 46t125 125t46 171.5t-46 171.5
t-125 125t-171.5 46zM512.5 199q-71.5 0 -122 50.5t-50.5 122t50.5 122t122 50.5t122 -50.5t50.5 -122t-50.5 -122t-122 -50.5zM512.5 517q-60.5 0 -103 -42.5t-42.5 -103t42.5 -103t103 -42.5t103 42.5t42.5 103t-42.5 103t-103 42.5zM752 -61q-77 0 -135 50q-8 7 -9 18
t6.5 19.5t18.5 9.5t19 -7q43 -36 100 -36q63 0 108 44.5t45 108.5q0 61 -43 106q-7 8 -7 19t8 18.5t19 7.5t19 -8q58 -60 58 -143q0 -86 -60.5 -146.5t-146.5 -60.5zM270 -57q-85 0 -145.5 60.5t-60.5 145.5q0 77 49 135q8 8 19 9t19.5 -6t9 -18t-6.5 -20q-37 -43 -37 -100
q0 -63 45 -108t108 -45q62 0 106 43q8 8 19.5 7.5t19 -8.5t7.5 -19t-8 -18q-60 -58 -144 -58zM141 464q-12 0 -20 8q-57 60 -57 143q0 86 60.5 146.5t145.5 60.5q87 0 152 -62q8 -8 8 -19t-7.5 -19t-18.5 -8t-19 7q-49 47 -115 47q-63 0 -108 -44.5t-45 -108.5
q0 -61 43 -106q8 -8 7.5 -19t-8.5 -19q-7 -7 -18 -7zM874 482q-10 0 -17 6q-9 7 -9.5 18.5t6.5 19.5q37 43 37 100q0 63 -45 108t-108 45t-104 -50q-7 -9 -18 -10t-20 6t-10 18t6 20q27 32 65.5 50.5t80.5 18.5q85 0 145.5 -60.5t60.5 -145.5q0 -77 -49 -135q-8 -9 -21 -9z
M881 449h-121q-5 0 -9 4t-4 9.5t4 9t9 3.5h121q5 0 9 -3.5t4 -9t-4 -9.5t-9 -4zM707 449h-54q-5 0 -9 4t-4 9.5t4 9t9 3.5h54q5 0 9 -3.5t4 -9t-4 -9.5t-9 -4zM881 275h-228q-5 0 -9 3.5t-4 9.5t4 9.5t9 3.5h228q5 0 9 -3.5t4 -9.5t-4 -9.5t-9 -3.5zM372 449h-228q-5 0 -9 4
t-4 9.5t4 9t9 3.5h228q5 0 9 -3.5t4 -9t-4 -9.5t-9 -4zM372 275h-228q-5 0 -9 3.5t-4 9.5t4 9.5t9 3.5h228q5 0 9 -3.5t4 -9.5t-4 -9.5t-9 -3.5zM618 -7q-6 0 -9.5 4t-3.5 10v227q0 6 3.5 10t9.5 4t9.5 -4t3.5 -10v-227q0 -6 -3.5 -10t-9.5 -4zM444 -20q-6 0 -9.5 4t-3.5 9
v67q0 6 3.5 10t9.5 4t9.5 -4t3.5 -10v-67q0 -5 -3.5 -9t-9.5 -4zM444 101q-6 0 -9.5 3.5t-3.5 9.5v107q0 6 3.5 9.5t9.5 3.5t9.5 -3.5t3.5 -9.5v-107q0 -6 -3.5 -9.5t-9.5 -3.5zM618 489q-6 0 -9.5 4t-3.5 9v241q0 6 3.5 10t9.5 4t9.5 -4t3.5 -10v-241q0 -5 -3.5 -9t-9.5 -4
zM444 502q-6 0 -9.5 4t-3.5 10v227q0 6 3.5 10t9.5 4t9.5 -4t3.5 -10v-227q0 -6 -3.5 -10t-9.5 -4z" />
    <glyph glyph-name="uniE64C" unicode="&#xe64c;" 
d="M944 34q0 -39 -28 -67t-68 -28h-703q-39 0 -67 28t-28 67v717q0 39 28 67t67 28h703q40 0 68 -28t28 -67v-717zM889 751q0 17 -12 28.5t-29 11.5h-703q-16 0 -28 -11.5t-12 -28.5v-717q0 -16 12 -28t28 -12h703q17 0 29 12t12 28v717zM238 218q-8 0 -12 7q-14 22 -23 46
q-5 13 7.5 18t17.5 -8q9 -22 22 -42q7 -12 -5 -19q-3 -2 -7 -2zM492 76q-118 0 -206 77q-10 9 -1 19.5t19 1.5q81 -71 188 -71q117 0 200 83t83 200.5t-83 200.5t-200.5 83t-200.5 -83t-83 -200q0 -6 -4 -10t-9.5 -4t-9.5 4t-4 10q0 128 91 219.5t219.5 91.5t220 -91.5
t91.5 -220t-91.5 -219.5t-219.5 -91zM382 307q-33 0 -56.5 23.5t-23.5 56.5t23.5 56.5t56.5 23.5t56.5 -23.5t23.5 -56.5t-23.5 -56.5t-56.5 -23.5zM382 439q-22 0 -37.5 -15t-15.5 -37t15.5 -37.5t37.5 -15.5t37 15.5t15 37.5t-15 37t-37 15zM601.5 307q-33.5 0 -57 23.5
t-23.5 56.5t23.5 56.5t57 23.5t57 -23.5t23.5 -56.5t-23.5 -56.5t-57 -23.5zM601.5 439q-21.5 0 -37 -15t-15.5 -37t15.5 -37.5t37 -15.5t37 15.5t15.5 37.5t-15.5 37t-37 15z" />
    <glyph glyph-name="uniE64D" unicode="&#xe64d;" 
d="M507 149q-113 0 -191 78l-9 9q-79 79 -78 193t81 193l139 139q7 8 19 8t19 -8l354 -354q8 -8 8 -19t-8 -19l-139 -139q-81 -81 -195 -81zM468 704l-120 -120q-64 -64 -65 -155t63 -155l8 -9q63 -62 153 -62q92 0 157 65l120 120zM393 539q-6 0 -10 4q-9 9 0 19l10 10
q10 9 19.5 -0.5t-0.5 -19.5l-9 -9q-4 -4 -10 -4zM350 367q-11 0 -13 10q-21 80 21 150q7 12 18.5 5t4.5 -18q-36 -61 -18 -130q3 -13 -10 -16q-1 -1 -3 -1zM101 -55h-4q-11 2 -17.5 11t-4.5 20q1 7 3 17.5t11 36t21 47.5t34.5 46t50.5 38q19 9 35.5 24.5t26 29t17 29
t9.5 21.5l3 9q2 11 12 16.5t20.5 2.5t16.5 -12.5t3 -20.5q-1 -5 -4 -13t-12.5 -28t-22 -37.5t-34 -37.5t-47.5 -32q-20 -10 -36.5 -29t-26 -36.5t-16.5 -38t-8.5 -28.5t-2.5 -12q-1 -10 -9 -16.5t-18 -6.5zM564 619q-11 0 -19 8t-8 19.5t8 19.5l165 165q8 8 19 8t19 -8
t8 -19.5t-8 -19.5l-165 -165q-8 -8 -19 -8zM726.5 457q-11.5 0 -19.5 7.5t-8 19t8 19.5l165 165q8 8 19.5 8t19.5 -8t8 -19t-8 -19l-165 -165q-8 -8 -19.5 -8z" />
    <glyph glyph-name="uniE64E" unicode="&#xe64e;" 
d="M696 671q-11 0 -14 11q-3 13 10 16l32 9q5 1 10 -1.5t6 -8.5q4 -13 -9 -17l-32 -8q-2 -1 -3 -1zM409 595q-10 0 -13 10q-4 13 10 17l227 60q13 4 16.5 -9t-9.5 -17l-227 -61h-4zM232 -54q-26 0 -51 25l-105 105q-18 18 -24 35.5t1 32.5t12.5 23t16.5 19q159 151 216 205
l-117 75q-30 16 -44.5 44t-11.5 60q5 40 34.5 71.5t73.5 43.5l547 146q45 12 82 3t59 -37q36 -47 16 -123l-147 -546q-13 -49 -51 -75.5t-80 -26.5q-30 0 -54 14t-35 38l-59 114q-51 -50 -219 -215q-32 -31 -60 -31zM105 127v-1l1 -1t2 -2.5t3 -3.5l4 -4l105 -105
q9 -9 12 -9q6 0 21 15q234 229 245 241q9 10 23 8q15 -1 21 -14l77 -148q1 -2 1 -3q9 -20 39 -20q25 0 48 16t30 46l147 547q13 49 -7 75q-15 20 -48 20q-16 0 -35 -5l-546 -147q-31 -8 -48.5 -27.5t-19.5 -40.5q-4 -33 28 -50q1 0 2 -1l146 -94q12 -8 13 -22t-10 -22
q-7 -7 -239 -229q-14 -14 -15 -19z" />
    <glyph glyph-name="uniE64F" unicode="&#xe64f;" 
d="M472 248h-1v1q-132 24 -132 184v78q0 5 4 9t9.5 4t9.5 -4t4 -9v-78q0 -72 26 -109.5t84 -48.5q12 -2 10 -15q-2 -12 -14 -12zM526 222h-14q-5 0 -9 4t-4 9.5t4 9.5t9 4h14q6 0 10 -4t4 -9.5t-4 -9.5t-10 -4zM519 113h-13q-73 0 -137 41t-101.5 108.5t-37.5 144.5v403
q0 25 23 25h518q12 0 21.5 -7t9.5 -18v-403q0 -76 -39.5 -144.5t-105 -109t-138.5 -40.5zM284 780v-373q0 -94 67 -167t155 -73h13q88 0 158 73.5t70 166.5v373h-463zM703 -51h-395q-11 0 -19 8t-8 19.5t8 19.5t19 8h395q11 0 19 -8t8 -19.5t-8 -19.5t-19 -8zM502 -48
q-11 0 -19 8t-8 19v164q0 11 8 19t19 8t19 -8t8 -19v-164q0 -11 -8 -19t-19 -8zM773 356q-12 0 -20 8t-8 19.5t8 19.5t20 8q26 0 53.5 39t45 94t17.5 101q0 30 -10 40q-11 11 -73 9h-34q-11 0 -19 8t-8 19t8 19t20 8q10 0 31 1h42q20 0 39 -6t32 -19q27 -26 27 -79
q0 -39 -12.5 -87.5t-34 -94t-54.5 -76.5t-70 -31zM221 356q-37 0 -70.5 31t-54.5 76.5t-33.5 94t-12.5 87.5q0 53 27 79q13 13 32 19t39 6h42q21 -1 31 -1q12 0 19.5 -8t7.5 -19t-7.5 -19t-18.5 -8h-34q-62 2 -73 -9q-10 -10 -10 -40q0 -46 17.5 -101t45 -94t53.5 -39
q12 0 19.5 -8t7.5 -19.5t-7.5 -19.5t-19.5 -8z" />
    <glyph glyph-name="uniE650" unicode="&#xe650;" 
d="M471 357h-3q-85 16 -116 85q-6 12 6.5 18t18.5 -7q25 -56 96 -69q6 -1 9 -5.5t2 -10.5q-2 -11 -13 -11zM505 248h-13q-74 0 -140 41t-105 110t-39 145v270q0 11 8.5 18t20.5 7h522q12 0 19 -7t7 -18v-270q0 -77 -38.5 -145.5t-103.5 -109.5t-138 -41zM263 784v-240
q0 -94 70 -167.5t159 -73.5h13q88 0 156.5 73.5t68.5 167.5v240h-467zM690 -55h-398q-12 0 -20 8t-8 19.5t8 19.5t20 8h398q12 0 20 -8t8 -19.5t-8 -19.5t-20 -8zM482.5 -52q-11.5 0 -19.5 8t-8 20v302q0 11 8 19.5t19.5 8.5t19.5 -8.5t8 -19.5v-302q0 -12 -8 -20t-19.5 -8z
M237 484q-4 0 -7 2q-12 6 -5 18q2 4 6 11t16.5 23t26.5 29.5t36.5 27.5t47.5 21q76 23 160 -24q39 -21 71.5 -30t52.5 -8.5t39.5 10.5t27.5 17.5t21 20.5q16 17 24 21q13 5 18 -7.5t-8 -18.5q-2 -1 -14 -13q-13 -15 -22.5 -23.5t-32.5 -20.5t-47 -13.5t-62 8t-81 33.5
q-74 41 -139 22q-21 -6 -41 -19t-32.5 -25t-24 -26.5t-14.5 -19.5t-5 -9q-4 -7 -12 -7z" />
    <glyph glyph-name="uniE651" unicode="&#xe651;" 
d="M830 -49h-670q-72 0 -100 49q-25 43 11 105l3 6l284 396v300q0 26 18 26h259q21 0 21 -26v-309l269 -387v-1q35 -60 6 -110q-28 -49 -101 -49zM115 81q-19 -34 -8 -54q12 -21 53 -21h670q41 0 53 21q11 20 -8 53l-270 403q-3 3 -3 15v280h-190v-280q0 -2 -9 -15zM667 254
q-64 0 -151 51q-31 19 -72 23t-73.5 -2t-67 -18t-47 -18t-19.5 -10q-11 -7 -18 5t5 18q9 5 23 12t51.5 20t72.5 19t79.5 1t79.5 -26q42 -25 75 -37t59 -10.5t40 5t37 13.5l10 4q12 5 17.5 -7.5t-7.5 -17.5l-9 -4q-50 -21 -85 -21zM306.5 41q-30.5 0 -52.5 21.5t-22 52.5
t22 52.5t52.5 21.5t52.5 -21.5t22 -52.5t-22 -52.5t-52.5 -21.5zM306.5 162q-19.5 0 -33.5 -14t-14 -33t14 -33t33.5 -14t33.5 14t14 33t-14 33t-33.5 14zM696.5 41q-26.5 0 -45.5 18.5t-19 45t19 45.5t45.5 19t45 -19t18.5 -45.5t-18.5 -45t-45 -18.5zM696 142
q-15 0 -26 -11t-11 -26t11 -26t26 -11t26 11t11 26t-11 26t-26 11zM483.5 155q-22.5 0 -38.5 16t-16 38.5t16 38.5t38.5 16t38.5 -16t16 -38.5t-16 -38.5t-38.5 -16zM483.5 237q-11.5 0 -19.5 -8.5t-8 -19.5t8 -19t19.5 -8t19.5 8t8 19.5t-8 19.5t-19.5 8zM561.5 576
q-5.5 0 -9.5 4t-4 10v149q0 5 4 9t9.5 4t9.5 -4t4 -9v-149q0 -6 -4 -10t-9.5 -4zM561.5 508q-5.5 0 -9.5 4t-4 10v13q0 6 4 10t9.5 4t9.5 -4t4 -10v-13q0 -6 -4 -10t-9.5 -4z" />
    <glyph glyph-name="uniE652" unicode="&#xe652;" 
d="M757 -55h-5q-37 0 -67 31.5t-30 68.5v41q0 14 -5.5 19t-20.5 5h-5q-14 0 -26 -5t-12 -19v-41q0 -38 -24.5 -69t-60.5 -31h-5q-38 0 -63.5 31.5t-25.5 68.5v41q0 24 -35 24h-4q-16 0 -29.5 -6t-13.5 -18v-41q0 -39 -22 -69.5t-59 -30.5h-4q-36 0 -65 31t-29 69v464
q0 89 45.5 165.5t124 120.5t170.5 44h25q91 0 168.5 -44t122.5 -120.5t45 -165.5v-464q0 -37 -26.5 -68.5t-63.5 -31.5zM624 165h5q37 0 59 -21t22 -58v-41q0 -14 14 -29.5t28 -15.5h5q13 0 24 14.5t11 30.5v464q0 116 -81.5 195.5t-199.5 79.5h-25q-118 0 -201.5 -80.5
t-83.5 -194.5v-464q0 -15 12.5 -30t26.5 -15h4q12 0 19 15t7 30v41q0 37 29.5 58t68.5 21h4q40 0 65 -21.5t25 -57.5v-41q0 -16 11 -30.5t23 -14.5h5q12 0 21 14.5t9 30.5v41q0 35 26 57t67 22zM503 729h-5h-4q-6 0 -10 4.5t-4 10t4 9.5t10 4h10q5 0 9 -4.5t4 -10t-4 -9.5
t-10 -4zM737.5 331q-5.5 0 -9.5 4t-4 10v166q0 75 -46.5 133t-121.5 78q-6 1 -8.5 6t-1.5 10.5t6 8.5t11 2q84 -22 136 -87.5t52 -150.5v-166q0 -6 -4 -10t-9.5 -4zM329 402q-33 0 -56.5 23.5t-23.5 57t23.5 57t56.5 23.5t56.5 -23.5t23.5 -57t-23.5 -57t-56.5 -23.5z
M329 535q-22 0 -37.5 -15.5t-15.5 -37t15.5 -37t37.5 -15.5t37.5 15.5t15.5 37t-15.5 37t-37.5 15.5zM531.5 402q-33.5 0 -57 23.5t-23.5 57t23.5 57t57 23.5t57 -23.5t23.5 -57t-23.5 -57t-57 -23.5zM531.5 535q-21.5 0 -37 -15.5t-15.5 -37t15.5 -37t37 -15.5t37 15.5
t15.5 37t-15.5 37t-37 15.5z" />
    <glyph glyph-name="uniE653" unicode="&#xe653;" 
d="M780 44q-11 0 -19 8.5t-8 19.5t8 19t19 8q36 0 70 36.5t53.5 85t19.5 88.5q0 42 -29.5 55t-113.5 13q-11 0 -19 8t-8 19.5t8 19.5t19 8q25 0 38 -0.5t37 -2.5t38.5 -6.5t32.5 -13.5t28 -22t17 -33t7 -45q0 -54 -25 -114.5t-72.5 -105.5t-100.5 -45zM656 -62h-439
q-42 0 -68.5 9t-40.5 30t-18.5 46.5t-4.5 65.5v388q0 12 7 18t19 6h660q12 0 20 -6.5t8 -17.5v-388q0 -82 -32.5 -116.5t-110.5 -34.5zM140 446v-357q0 -64 12.5 -80t64.5 -16h439q55 0 71.5 18t16.5 78v357h-604zM189 244q-6 0 -10 4t-4 9.5t4 9.5t10 4t10 -4t4 -9.5
t-4 -9.5t-10 -4zM282 40q-58 0 -79.5 21.5t-21.5 80.5v47q0 6 4 10t9.5 4t9.5 -4t4 -10v-47q0 -48 13.5 -61.5t60.5 -13.5q6 0 10 -4t4 -9.5t-4 -9.5t-10 -4zM343 546q-13 0 -21 10q-8 9 -6.5 20.5t9.5 18.5q34 28 35 49q0 10 -11 20q-13 11 -20.5 19t-19 25t-15 32t1 37
t20.5 44q7 10 18.5 11.5t20.5 -5t11 -18t-5 -20.5q-17 -23 -12 -39.5t36 -44.5q31 -27 30 -63q-1 -45 -55 -90q-7 -6 -17 -6zM508 546q-13 0 -21 10q-8 9 -7 20.5t10 18.5q34 28 35 49q0 10 -11 20q-13 11 -20.5 19t-19 25t-15 32t1 37t20.5 44q7 10 18.5 11.5t20.5 -5
t11 -18t-5 -20.5q-17 -23 -12 -39.5t36 -44.5q31 -27 30 -63q-1 -45 -55 -90q-7 -6 -17 -6z" />
    <glyph glyph-name="uniE654" unicode="&#xe654;" 
d="M443 26q-42 0 -82 27.5t-95 82.5q-80 80 -99 127q-33 79 35 148l346 345q69 69 167 69q100 0 170 -70t70 -169q1 -99 -69 -169l-345 -345q-46 -46 -98 -46zM715 770q-75 0 -129 -53l-345 -345q-42 -43 -24 -88q16 -37 88 -109q47 -47 78.5 -70.5t59.5 -23.5q29 0 59 30
l345 345q54 54 53.5 130t-54.5 130t-131 54zM838 567h-1q-6 0 -9.5 3.5t-3.5 9.5q0 10 -2 21q-1 5 2.5 9.5t9 5.5t10.5 -2.5t6 -8.5q2 -13 1.5 -25.5t-13.5 -12.5zM537.5 570q-5.5 0 -9.5 4q-10 9 0 19l88 88q40 40 97 40t98 -41q9 -9 -0.5 -19t-19.5 0q-32 32 -78 32.5
t-78 -31.5l-88 -88q-4 -4 -9.5 -4zM89.5 -57q-11.5 0 -19.5 8t-8 19.5t8 19.5l172 172q8 8 19.5 8t19.5 -8t8 -19.5t-8 -19.5l-172 -172q-8 -8 -19.5 -8z" />
    <glyph glyph-name="uniE655" unicode="&#xe655;" 
d="M496 -54q-91 0 -173.5 35t-142.5 95t-95.5 143t-35.5 173.5t35.5 173t95.5 142.5t142.5 95.5t173.5 35.5q90 0 171.5 -34t144.5 -97t97 -144.5t34 -171t-34 -171t-97 -145t-144.5 -97t-171.5 -33.5zM496 784q-106 0 -196 -52.5t-142.5 -143t-52.5 -196.5t52.5 -196
t142.5 -142.5t196 -52.5q79 0 150 29.5t126.5 85t85 127t29.5 150t-29.5 150t-85 126.5t-126.5 85t-150 30zM496.5 -41q-72.5 0 -134.5 58t-97.5 158t-35.5 217.5t35.5 217t97.5 157.5t134.5 58t134 -58t97.5 -157.5t36 -217t-36 -217.5t-97.5 -158t-134 -58zM496 797
q-65 0 -120 -54t-87.5 -147.5t-32.5 -203.5t32.5 -203t87.5 -147.5t120 -54.5t120.5 54.5t87.5 147.5t32 203t-32 203.5t-87.5 147.5t-120.5 54zM496 493q-143 0 -241 45t-98 111q0 5 4 9t9.5 4t10 -4t4.5 -9q0 -34 42 -64t114 -47.5t155 -17.5t155 17.5t114.5 47.5t42.5 64
q0 5 4 9t9.5 4t9.5 -4t4 -9q0 -66 -98 -111t-241 -45zM821.5 105q-5.5 0 -9.5 4t-4 10q0 34 -42.5 63.5t-114.5 47t-155 17.5t-155 -17.5t-114 -47t-42 -63.5q0 -6 -4.5 -10t-10 -4t-9.5 4t-4 10q0 66 98 111t241 45t241 -45t98 -111q0 -6 -4 -10t-9.5 -4zM499 -41
q-6 0 -10 4t-4 10v844q0 6 4 10t10 4t10 -4t4 -10v-844q0 -6 -4 -10t-10 -4zM916 369h-554q-6 0 -10 4t-4 9.5t4 9.5t10 4h554q6 0 10 -4t4 -9.5t-4 -9.5t-10 -4zM293 369h-208q-5 0 -9.5 4t-4.5 9.5t4.5 9.5t9.5 4h208q6 0 10 -4t4 -9.5t-4 -9.5t-10 -4z" />
    <glyph glyph-name="uniE656" unicode="&#xe656;" 
d="M502.5 -79q-89.5 0 -171 33.5t-145.5 96.5q-85 86 -115.5 201t0 230.5t115.5 200.5q64 63 145.5 97t171 34t171 -34t144.5 -97t97 -144.5t34 -171t-34 -171t-97 -145t-144.5 -97t-171 -33.5zM502.5 759q-78.5 0 -150 -30t-126.5 -85q-75 -75 -102 -176t0 -201.5
t102 -175.5q55 -56 126.5 -85.5t150 -29.5t150 29.5t126.5 85t85 127t30 150t-30 150t-85 126.5t-126.5 85t-150 30zM117 408h-2q-17 3 -34 5q-6 0 -9.5 4.5t-3 10t5 9.5t10.5 3q17 -2 35 -4q6 -1 9 -6t2 -10q-1 -12 -13 -12zM540 40q-10 0 -13 10q-11 34 -26 67
q-6 12 6.5 18t18.5 -6q16 -35 27 -71q4 -13 -9 -17q-2 -1 -4 -1zM478 173q-8 0 -12 7q-19 30 -43 57q-9 10 1 19.5t20 -1.5q25 -28 45 -60q8 -12 -4 -19q-3 -3 -7 -3zM381 284q-5 0 -9 4q-28 24 -58 43q-11 8 -3.5 19.5t19.5 3.5q31 -20 60 -45q10 -9 1 -20q-4 -5 -10 -5z
M257 365q-3 0 -5 1q-33 15 -67 26q-14 4 -10 17.5t18 8.5q36 -11 70 -27q13 -6 7 -18q-4 -8 -13 -8zM561 -67q-12 0 -13 13q-2 17 -5 33q-1 6 2.5 10.5t9 5.5t10.5 -2t6 -9q2 -17 4 -35q1 -6 -3 -10.5t-9 -4.5q-1 -1 -2 -1zM440 732q-12 0 -13 11q-3 18 -5 36q0 5 3.5 9.5
t9 5t10 -3t5.5 -9.5q1 -17 4 -33q1 -6 -2.5 -10.5t-9.5 -5.5h-2zM808 308q-2 0 -4 1q-36 11 -70 27q-13 6 -7 18.5t18 6.5q33 -15 67 -26q14 -4 10 -17q-3 -10 -14 -10zM675 371q-4 0 -8 2q-31 21 -60 46q-10 9 -1 19.5t19 1.5q27 -24 58 -44q11 -7 4 -19q-5 -6 -12 -6z
M564 468q-6 0 -11 4q-24 29 -45 61q-8 11 3.5 18.5t19.5 -3.5q20 -30 43 -58q9 -10 -1 -19q-4 -3 -9 -3zM484 591q-9 0 -13 8q-16 34 -27 71q-4 13 9 17t17 -9q11 -35 26 -67q6 -13 -7 -19q-2 -1 -5 -1zM915 287h-1q-18 2 -36 5q-5 0 -8.5 5t-2.5 10.5t5.5 9t10.5 2.5
q16 -3 33 -4q6 -1 9.5 -5.5t3.5 -9.5q-2 -13 -14 -13z" />
    <glyph glyph-name="uniE657" unicode="&#xe657;" 
d="M681 119h-369q-39 0 -59.5 21.5t-20.5 56.5v369q0 38 22 68.5t58 30.5h369q37 0 67.5 -31.5t30.5 -67.5v-369q0 -34 -29 -56t-69 -22zM312 612q-13 0 -20 -14t-7 -32v-369q0 -25 27 -25h369q9 0 17.5 1.5t18 7.5t9.5 16v369q0 16 -16 31t-29 15h-369zM516 545h-13
q-6 0 -10 4t-4 9.5t4 9.5t10 4h13q6 0 9.5 -4t3.5 -9.5t-3.5 -9.5t-9.5 -4zM325.5 439q-5.5 0 -9.5 4t-4 9v31v16v17q0 4 1 14t3.5 14t7.5 11t11.5 9.5t17 5t24.5 2.5h72q6 0 10 -4t4 -9.5t-4 -9.5t-10 -4h-72q-12 0 -19.5 -1.5t-11.5 -3.5t-6 -9t-2 -10.5t0.5 -17
t0.5 -20.5v-31q0 -5 -4 -9t-9.5 -4zM916 559h-67q-11 0 -18.5 7.5t-7.5 18.5t7.5 19t18.5 8h67q11 0 19 -8t8 -19t-8 -18.5t-19 -7.5zM916 412h-67q-11 0 -18.5 8t-7.5 19t7.5 18.5t18.5 7.5h67q11 0 19 -7.5t8 -18.5t-8 -19t-19 -8zM916 279h-67q-11 0 -18.5 7.5t-7.5 18.5
t7.5 19t18.5 8h67q11 0 19 -8t8 -19t-8 -18.5t-19 -7.5zM916 159h-67q-11 0 -18.5 7.5t-7.5 18.5t7.5 19t18.5 8h67q11 0 19 -8t8 -19t-8 -18.5t-19 -7.5zM299 705q-11 0 -19 8t-8 19v67q0 11 8 18.5t19 7.5t18.5 -7.5t7.5 -18.5v-67q0 -11 -7.5 -19t-18.5 -8zM432 705
q-11 0 -18.5 8t-7.5 19v67q0 11 7.5 18.5t18.5 7.5t19 -7.5t8 -18.5v-67q0 -11 -8 -19t-19 -8zM579 705q-11 0 -19 8t-8 19v67q0 11 8 18.5t19 7.5t19 -7.5t8 -18.5v-67q0 -11 -8 -19t-19 -8zM699 705q-11 0 -19 8t-8 19v67q0 11 8 18.5t19 7.5t19 -7.5t8 -18.5v-67
q0 -11 -8 -19t-19 -8zM299 -41q-11 0 -19 7.5t-8 18.5v67q0 11 8 19t19 8t18.5 -8t7.5 -19v-67q0 -11 -7.5 -18.5t-18.5 -7.5zM432 -41q-11 0 -18.5 7.5t-7.5 18.5v67q0 11 7.5 19t18.5 8t19 -8t8 -19v-67q0 -11 -8 -18.5t-19 -7.5zM579 -41q-11 0 -19 7.5t-8 18.5v67
q0 11 8 19t19 8t19 -8t8 -19v-67q0 -11 -8 -18.5t-19 -7.5zM699 -41q-11 0 -19 7.5t-8 18.5v67q0 11 8 19t19 8t19 -8t8 -19v-67q0 -11 -8 -18.5t-19 -7.5zM143 559h-67q-11 0 -19 7.5t-8 18.5t8 19t19 8h67q11 0 18.5 -8t7.5 -19t-7.5 -18.5t-18.5 -7.5zM143 412h-67
q-11 0 -19 8t-8 19t8 18.5t19 7.5h67q11 0 18.5 -7.5t7.5 -18.5t-7.5 -19t-18.5 -8zM143 279h-67q-11 0 -19 7.5t-8 18.5t8 19t19 8h67q11 0 18.5 -8t7.5 -19t-7.5 -18.5t-18.5 -7.5zM143 159h-67q-11 0 -19 7.5t-8 18.5t8 19t19 8h67q11 0 18.5 -8t7.5 -19t-7.5 -18.5
t-18.5 -7.5z" />
    <glyph glyph-name="uniE658" unicode="&#xe658;" 
d="M873 43q0 -40 -28 -68.5t-69 -28.5h-560q-40 0 -68.5 28.5t-28.5 68.5v699q0 41 28.5 69t68.5 28h560q41 0 69 -28t28 -69v-699zM817 742q0 17 -12 29t-29 12h-560q-17 0 -29 -12t-12 -29v-699q0 -17 12 -29t29 -12h560q17 0 29 12t12 29v699zM491.5 74
q-94.5 0 -161.5 67t-67 161.5t67 162t161.5 67.5t161.5 -67.5t67 -162t-67 -161.5t-161.5 -67zM491 504q-83 0 -142 -59t-59 -142t59 -142t142 -59t142 59t59 142t-59 142t-142 59zM428 166q-3 0 -6 2q-38 19 -60.5 55.5t-22.5 79.5q0 6 4.5 10t10 4t9.5 -4t4 -10
q0 -35 18 -64.5t50 -45.5q12 -7 6 -19q-4 -8 -13 -8zM491 151q-6 0 -10 4t-4 10t4 10t10 4q13 0 25 3q6 1 10.5 -2.5t6 -9t-2 -10.5t-8.5 -6q-15 -3 -31 -3zM840 602h-698q-6 0 -10 4t-4 10t4 10t10 4h698q6 0 10 -4t4 -10t-4 -10t-10 -4zM338 686h-28q-6 0 -10 4t-4 9.5
t4 10t10 4.5h28q5 0 9.5 -4.5t4.5 -10t-4.5 -9.5t-9.5 -4zM254 686h-28q-6 0 -10 4t-4 9.5t4 10t10 4.5h28q6 0 10 -4.5t4 -10t-4 -9.5t-10 -4z" />
    <glyph glyph-name="uniE659" unicode="&#xe659;" 
d="M772 -54h-526q-14 0 -22 10.5t-4 23.5q182 686 213 773q30 86 75 86q44 0 74 -85q33 -93 215 -770q2 -6 2 -11q0 -11 -8 -19t-19 -8zM281 0h456q-175 650 -206 736q-12 35 -23 47q-12 -12 -24 -48q-28 -80 -203 -735zM863 -54h-702q-12 0 -19.5 8t-7.5 19t7.5 19t19.5 8
h702q12 0 19.5 -8t7.5 -19t-7.5 -19t-19.5 -8zM715 122h-433q-5 0 -9 3.5t-4 9.5t4 10t9 4h433q5 0 9 -4t4 -10t-4 -9.5t-9 -3.5zM674 324h-94q-6 0 -10 4t-4 9.5t4 9.5t10 4h94q6 0 10 -4t4 -9.5t-4 -9.5t-10 -4zM525 324h-189q-5 0 -9 4t-4 9.5t4 9.5t9 4h189q6 0 10 -4
t4 -9.5t-4 -9.5t-10 -4zM620 527h-216q-6 0 -10 4t-4 9.5t4 9.5t10 4h216q6 0 10 -4t4 -9.5t-4 -9.5t-10 -4z" />
    <glyph glyph-name="uniE65A" unicode="&#xe65a;" 
d="M943 445q0 -39 -27.5 -66.5t-66.5 -27.5h-124q-39 0 -66.5 27.5t-27.5 66.5v300q0 39 27.5 66.5t66.5 27.5h124q39 0 66.5 -27.5t27.5 -66.5v-300zM889 745q0 17 -11.5 28.5t-28.5 11.5h-124q-16 0 -28 -11.5t-12 -28.5v-300q0 -16 12 -28t28 -12h124q17 0 28.5 12
t11.5 28v300zM821 714q0 -10 -7 -17t-17 -7h-6q-10 0 -17 7t-7 17v7q0 9 7 16t17 7h6q10 0 17 -7t7 -16v-7zM396 10q-25 0 -46 14q-36 24 -56.5 57.5t-15.5 87.5q3 26 24 73q13 30 17 43q0 3 1 17q-56 5 -87 5h-41q-24 -1 -32 0h-14q-46 7 -73.5 43.5t-21.5 81.5t41 73
q-15 28 -11 60q5 37 33 61v1q-10 22 -7 45q5 35 32 57q-7 18 -5 37q3 20 16 36t32 23q19 10 62 10q9 0 29 -1h46q22 0 61 1q34 1 49 1q23 0 40 -1.5t38 -8t35.5 -18t27.5 -32.5t21 -51v-3v-3v-343v-1v-1l-1 -14v-5q-8 -26 -64 -117q-47 -76 -55 -96q-16 -41 -12 -93
q1 -17 -13 -25q-22 -14 -50 -14zM233 361q35 0 109 -6l8 -1q11 -1 18.5 -10t6.5 -20q-1 -7 -1 -22q0 -21 -3 -30q-5 -18 -20 -52q-17 -39 -19 -56q-4 -37 9 -57.5t39 -37.5q10 -7 24 -4q1 57 17 97q9 24 59 104q48 79 56 102v9v338q-9 41 -32.5 54t-75.5 13q-14 0 -46 -1
q-40 -2 -63 -2q-18 0 -47 1h-28q-31 0 -38 -4l-6 -2q-10 -4 -12 -15q-1 -6 2 -11q10 -16 5 -35q-5 -17 -18 -24q-14 -8 -16 -24q-1 -9 3 -17q6 -9 3.5 -30t-15.5 -30q-15 -12 -17 -30q-3 -17 6 -30.5t5 -33.5t-17 -29q-21 -15 -25 -40q-3 -23 12 -42q12 -17 37 -20q2 0 4 1
t4 1h1q3 0 12.5 -1t16.5 -1q5 0 19 -1t23 -1zM319 718q-18 0 -18 14q0 3 1 5q3 8 13 9h4q6 -1 10 -4.5t4 -9.5t-4 -10t-10 -4zM491 691q-6 0 -10 4q-19 22 -43.5 26.5t-60.5 -0.5q-12 -1 -19 -1q-6 -1 -10 3t-4.5 9.5t3.5 9.5t9 5q6 0 20 1q26 1 47 1.5t41 -8t37 -28.5
q9 -10 -1 -19q-4 -3 -9 -3z" />
    <glyph glyph-name="uniE65B" unicode="&#xe65b;" 
d="M369 -15h-1q-22 0 -42 13t-49 42l-169 169q-37 36 -49.5 61.5t-3.5 56t47 68.5l384 371q8 8 19 7.5t19 -8.5t7.5 -19t-8.5 -18l-383 -371q-27 -26 -33 -39.5t1.5 -27.5t36.5 -44l170 -169q39 -39 54 -39q14 0 53 38l384 371q8 7 19 7t18.5 -8t7.5 -19t-8 -19l-384 -370
q-28 -28 -48.5 -40.5t-41.5 -12.5zM482 72q-12 0 -20 8q-7 8 -7 19t8 18l384 371q26 26 32 39.5t-1.5 27.5t-36.5 44l-169 169q-23 22 -32 30t-22 8.5t-22 -7.5t-31 -30l-384 -371q-8 -7 -19 -7t-19 8t-7.5 19t8.5 19l384 370q53 54 90 53.5t91 -55.5l170 -169
q28 -28 41.5 -49t15.5 -42q2 -41 -52 -95l-384 -371q-8 -7 -18 -7zM862 608q-11 0 -19 7.5t-8 18.5t8 19l6 6q41 41 41.5 59t-35.5 55q-39 39 -59 38.5t-60 -39.5l-6 -6q-7 -8 -18 -8t-19 7.5t-8 18.5t8 19l6 6q54 55 96.5 55t96.5 -53q38 -39 47 -70.5t-4 -57.5t-49 -62
l-5 -6q-8 -7 -19 -7zM271.5 389q-5.5 0 -9.5 4q-10 10 0 19l9 9q9 10 18.5 0.5t0.5 -18.5l-10 -10q-3 -4 -8.5 -4zM327 446q-5 0 -9 4q-9 9 0 19l89 83q10 10 19 0t-1 -19l-89 -84q-3 -3 -9 -3zM633 544q-6 0 -10 4q-9 10 1 19l82 78q10 9 19 -0.5t0 -19.5l-83 -77
q-4 -4 -9 -4zM713 542q-5 0 -9 4l-78 82q-9 10 0.5 19t18.5 0l78 -83q9 -10 -1 -19q-3 -3 -9 -3zM326 154q-6 0 -10 4l-78 83q-9 9 0.5 18.5t18.5 -0.5l78 -83q9 -9 0 -18q-4 -4 -9 -4z" />
    </font>
</defs>
</svg>
